<svg id="crawl" xmlns="http://www.w3.org/2000/svg" width="132.479" height="132.479" viewBox="0 0 132.479 132.479">
  <path id="Path_39390" data-name="Path 39390" d="M14.32,0a14.32,14.32,0,1,0,14.32,14.32A14.336,14.336,0,0,0,14.32,0Zm0,24.759A10.439,10.439,0,1,1,24.759,14.32,10.451,10.451,0,0,1,14.32,24.759Z" fill="#5e48e9"/>
  <path id="Path_39391" data-name="Path 39391" d="M196.667,47.843a1.941,1.941,0,0,0,0,3.881h4.764a1.941,1.941,0,1,0,0-3.881Z" transform="translate(-144.341 -35.464)" fill="#5e48e9"/>
  <path id="Path_39392" data-name="Path 39392" d="M248.517,49.784a1.94,1.94,0,0,0,1.941,1.941h55.121a1.941,1.941,0,1,0,0-3.881H250.458a1.94,1.94,0,0,0-1.941,1.941Z" transform="translate(-184.214 -35.464)" fill="#5e48e9"/>
  <path id="Path_39393" data-name="Path 39393" d="M14.32,133.771a14.32,14.32,0,1,0,14.32,14.32A14.336,14.336,0,0,0,14.32,133.771Zm0,24.759a10.439,10.439,0,1,1,10.438-10.439A10.451,10.451,0,0,1,14.32,158.53Z" transform="translate(0 -99.158)" fill="#5e48e9"/>
  <path id="Path_39394" data-name="Path 39394" d="M246.032,145.133H163.777a4.511,4.511,0,0,0-4.506,4.506v13.748a4.511,4.511,0,0,0,4.506,4.506h82.255a4.511,4.511,0,0,0,4.506-4.506V149.639A4.511,4.511,0,0,0,246.032,145.133Zm.625,18.254a.626.626,0,0,1-.625.625H163.777a.626.626,0,0,1-.625-.625V149.639a.626.626,0,0,1,.625-.625h82.255a.626.626,0,0,1,.625.625v13.748Z" transform="translate(-118.06 -107.58)" fill="#5e48e9"/>
  <path id="Path_39395" data-name="Path 39395" d="M201.43,181.614h-4.764a1.941,1.941,0,0,0,0,3.881h4.764a1.941,1.941,0,1,0,0-3.881Z" transform="translate(-144.341 -134.622)" fill="#5e48e9"/>
  <path id="Path_39396" data-name="Path 39396" d="M305.578,181.614H250.458a1.941,1.941,0,1,0,0,3.881h55.121a1.941,1.941,0,1,0,0-3.881Z" transform="translate(-184.214 -134.622)" fill="#5e48e9"/>
  <path id="Path_39397" data-name="Path 39397" d="M246.032,278.9H163.777a4.512,4.512,0,0,0-4.506,4.507v13.747a4.511,4.511,0,0,0,4.506,4.506h82.255a4.511,4.511,0,0,0,4.506-4.506V283.411A4.511,4.511,0,0,0,246.032,278.9Zm.625,18.254a.626.626,0,0,1-.625.625H163.777a.626.626,0,0,1-.625-.625V283.411a.626.626,0,0,1,.625-.625h82.255a.626.626,0,0,1,.625.625v13.747Z" transform="translate(-118.06 -206.738)" fill="#fa5da7"/>
  <path id="Path_39398" data-name="Path 39398" d="M201.43,315.386h-4.764a1.941,1.941,0,1,0,0,3.881h4.764a1.941,1.941,0,1,0,0-3.881Z" transform="translate(-144.341 -233.781)" fill="#fa5da7"/>
  <path id="Path_39399" data-name="Path 39399" d="M305.578,315.386H250.458a1.941,1.941,0,1,0,0,3.881h55.121a1.941,1.941,0,1,0,0-3.881Z" transform="translate(-184.214 -233.781)" fill="#fa5da7"/>
  <path id="Path_39400" data-name="Path 39400" d="M14.32,401.315a14.32,14.32,0,1,0,14.32,14.32A14.336,14.336,0,0,0,14.32,401.315Zm0,24.758a10.439,10.439,0,1,1,10.438-10.439A10.451,10.451,0,0,1,14.32,426.073Z" transform="translate(0 -297.476)" fill="#5e48e9"/>
  <path id="Path_39401" data-name="Path 39401" d="M196.667,449.157a1.941,1.941,0,0,0,0,3.881h4.764a1.941,1.941,0,0,0,0-3.881Z" transform="translate(-144.341 -332.939)" fill="#5e48e9"/>
  <path id="Path_39402" data-name="Path 39402" d="M307.519,451.1a1.94,1.94,0,0,0-1.941-1.941H250.458a1.941,1.941,0,0,0,0,3.881h55.121a1.94,1.94,0,0,0,1.941-1.941Z" transform="translate(-184.214 -332.939)" fill="#5e48e9"/>
  <path id="Path_39403" data-name="Path 39403" d="M246.032,412.677H163.777a4.511,4.511,0,0,0-4.506,4.506v13.747a4.511,4.511,0,0,0,4.506,4.506H220.3a1.941,1.941,0,1,0,0-3.881H163.777a.626.626,0,0,1-.625-.625V417.183a.626.626,0,0,1,.625-.625h82.255a.626.626,0,0,1,.625.625v13.747a.626.626,0,0,1-.625.625H228.063a1.941,1.941,0,1,0,0,3.881h17.969a4.511,4.511,0,0,0,4.506-4.506V417.183A4.511,4.511,0,0,0,246.032,412.677Z" transform="translate(-118.06 -305.898)" fill="#5e48e9"/>
  <path id="Path_39404" data-name="Path 39404" d="M14.32,267.543A14.324,14.324,0,0,0,.482,285.549a1.941,1.941,0,0,0,3.751-1A10.439,10.439,0,1,1,14.32,292.3a10.324,10.324,0,0,1-6.5-2.272A1.941,1.941,0,1,0,5.4,293.064a14.166,14.166,0,0,0,8.916,3.118,14.32,14.32,0,0,0,0-28.64Z" transform="translate(0 -198.317)" fill="#fa5da7"/>
  <path id="Path_39405" data-name="Path 39405" d="M246.032,11.361H234.508a1.941,1.941,0,0,0,0,3.881h11.525a.626.626,0,0,1,.625.625V29.615a.626.626,0,0,1-.625.625H163.777a.626.626,0,0,1-.625-.625V15.867a.626.626,0,0,1,.625-.625h62.971a1.941,1.941,0,1,0,0-3.881H163.777a4.511,4.511,0,0,0-4.506,4.506V29.615a4.512,4.512,0,0,0,4.506,4.507h82.255a4.511,4.511,0,0,0,4.506-4.507V15.867a4.511,4.511,0,0,0-4.506-4.506Z" transform="translate(-118.06 -8.421)" fill="#5e48e9"/>
</svg>
