<svg id="keyword" xmlns="http://www.w3.org/2000/svg" width="136.666" height="136.658" viewBox="0 0 136.666 136.658">
  <path id="Path_39406" data-name="Path 39406" d="M455.122,221.867h-9.111a2.278,2.278,0,0,0,0,4.556h9.111A2.278,2.278,0,0,1,457.4,228.7v22.778a2.278,2.278,0,0,1-2.278,2.277h-9.111a2.278,2.278,0,0,0,0,4.555h9.111a6.833,6.833,0,0,0,6.834-6.833V228.7A6.833,6.833,0,0,0,455.122,221.867Z" transform="translate(-325.29 -162.645)" fill="#5e48e9"/>
  <path id="Path_39407" data-name="Path 39407" d="M6.834,245.8H34.167a2.278,2.278,0,1,0,0-4.555H6.834a2.278,2.278,0,0,1-2.278-2.277V216.189a2.278,2.278,0,0,1,2.278-2.277H34.167a2.278,2.278,0,1,0,0-4.556H15.945v-2.278a2.278,2.278,0,0,0-4.555,0v2.278H6.834A6.833,6.833,0,0,0,0,216.189v22.778A6.833,6.833,0,0,0,6.834,245.8Z" transform="translate(0 -150.134)" fill="#5e48e9"/>
  <path id="Path_39408" data-name="Path 39408" d="M208.81,179.2a29.611,29.611,0,1,0,29.611,29.611A29.612,29.612,0,0,0,208.81,179.2Zm0,54.667a25.056,25.056,0,1,1,25.056-25.056A25.056,25.056,0,0,1,208.81,233.866Z" transform="translate(-131.366 -131.366)" fill="#5e48e9"/>
  <path id="Path_39409" data-name="Path 39409" d="M42.668,258.278v13.666a2.278,2.278,0,0,0,4.555,0V258.278a2.278,2.278,0,1,0-4.555,0Z" transform="translate(-31.279 -187.667)" fill="#5e48e9"/>
  <path id="Path_39410" data-name="Path 39410" d="M221.023,210.165a2.278,2.278,0,0,0-3.2.018l-2.2,2.2L211.93,208.7c-.014-.016-.034-.018-.05-.034a38.87,38.87,0,1,0-3.205,3.205c.017.016.019.037.034.05l3.686,3.686-2.628,2.629a2.276,2.276,0,0,0,.021,3.24L228.6,239.864a7.973,7.973,0,0,0,11.257-11.293Zm-38.039,6.979a34.167,34.167,0,1,1,34.167-34.167A34.167,34.167,0,0,1,182.984,217.143ZM219.446,215l13.27,12.984-4.831,4.831-13.27-12.972Zm17.2,21.639a3.416,3.416,0,0,1-4.849-.02l-.658-.64,4.831-4.832.683.661a3.416,3.416,0,0,1,0,4.829Z" transform="translate(-105.54 -105.533)" fill="#5e48e9"/>
  <path id="Path_39411" data-name="Path 39411" d="M257.078,256.222a2.278,2.278,0,0,0-3.056,1.021l-6.774,13.545-5-13.329a2.278,2.278,0,0,0-4.269,0l-5,13.329-6.763-13.545a2.279,2.279,0,1,0-4.077,2.036l9.111,18.222a2.25,2.25,0,0,0,2.158,1.257,2.277,2.277,0,0,0,2.015-1.475l4.688-12.535,4.7,12.528a2.278,2.278,0,0,0,2.016,1.476h.119a2.28,2.28,0,0,0,2.05-1.26l9.111-18.223A2.278,2.278,0,0,0,257.078,256.222Z" transform="translate(-162.672 -187.65)" fill="#fa5da7"/>
  <path id="Path_39412" data-name="Path 39412" d="M4.555,13.666H38.722a4.555,4.555,0,0,0,4.556-4.555V4.555A4.556,4.556,0,0,0,38.722,0H4.555A4.555,4.555,0,0,0,0,4.555V9.111A4.555,4.555,0,0,0,4.555,13.666Zm0-9.111H38.722V9.111H4.555Z" fill="#5e48e9"/>
  <path id="Path_39413" data-name="Path 39413" d="M238.934,72.821v4.555a4.555,4.555,0,0,0,4.555,4.556h34.167a4.555,4.555,0,0,0,4.555-4.556V72.821a4.555,4.555,0,0,0-4.555-4.555H243.489A4.555,4.555,0,0,0,238.934,72.821Zm38.722,4.555H243.489V72.821h34.167Z" transform="translate(-175.156 -50.044)" fill="#5e48e9"/>
  <path id="Path_39414" data-name="Path 39414" d="M183.755,13.666h18.223a4.555,4.555,0,0,0,4.556-4.555V4.555A4.556,4.556,0,0,0,201.977,0H183.755A4.556,4.556,0,0,0,179.2,4.555V9.111A4.555,4.555,0,0,0,183.755,13.666Zm0-9.111h18.223V9.111H183.755Z" transform="translate(-131.366)" fill="#5e48e9"/>
  <path id="Path_39415" data-name="Path 39415" d="M124.021,68.266a4.556,4.556,0,0,0-4.556,4.555v4.555a4.556,4.556,0,0,0,4.556,4.556h18.222a4.555,4.555,0,0,0,4.555-4.556V72.821a4.555,4.555,0,0,0-4.555-4.555Zm0,9.111V72.821h18.222v4.555Z" transform="translate(-87.577 -50.044)" fill="#5e48e9"/>
  <path id="Path_39416" data-name="Path 39416" d="M4.555,81.932h6.834v2.278a2.278,2.278,0,1,0,4.555,0V81.932h6.833a4.555,4.555,0,0,0,4.555-4.556V72.821a4.555,4.555,0,0,0-4.555-4.555H4.555A4.555,4.555,0,0,0,0,72.821v4.555A4.556,4.556,0,0,0,4.555,81.932Zm0-9.111H22.777v4.555H4.555Z" transform="translate(0 -50.044)" fill="#5e48e9"/>
  <path id="Path_39417" data-name="Path 39417" d="M303.223,13.666h9.111a4.555,4.555,0,0,0,4.556-4.555V4.555A4.556,4.556,0,0,0,312.334,0h-9.111a4.555,4.555,0,0,0-4.555,4.555V9.111A4.555,4.555,0,0,0,303.223,13.666Zm0-9.111h9.111V9.111h-9.111Z" transform="translate(-218.946)" fill="#5e48e9"/>
  <path id="Path_39418" data-name="Path 39418" d="M438.633,68.266H422.688a4.555,4.555,0,0,0-4.555,4.555v4.555a4.555,4.555,0,0,0,4.555,4.556h15.945a4.556,4.556,0,0,0,4.555-4.556V72.821A4.555,4.555,0,0,0,438.633,68.266Zm-15.945,9.111V72.821h15.945v4.555Z" transform="translate(-306.522 -50.044)" fill="#5e48e9"/>
  <path id="Path_39419" data-name="Path 39419" d="M413.611,0H388.555A4.555,4.555,0,0,0,384,4.555V9.111a4.555,4.555,0,0,0,4.555,4.555h25.056a4.555,4.555,0,0,0,4.555-4.555V4.555A4.555,4.555,0,0,0,413.611,0ZM388.555,9.111V4.555h25.056V9.111Z" transform="translate(-281.5)" fill="#5e48e9"/>
  <path id="Path_39420" data-name="Path 39420" d="M44.945,153.6a2.277,2.277,0,0,0-2.277,2.277v4.555a2.278,2.278,0,1,0,4.555,0v-4.555A2.278,2.278,0,0,0,44.945,153.6Z" transform="translate(-31.279 -112.602)" fill="#5e48e9"/>
</svg>
