<svg xmlns="http://www.w3.org/2000/svg" width="136.665" height="122.247" viewBox="0 0 136.665 122.247">
  <g id="url-list" transform="translate(0 -28)">
    <path id="Path_39421" data-name="Path 39421" d="M245.493,196a23.489,23.489,0,1,0,23.489,23.489A23.516,23.516,0,0,0,245.493,196Zm0,41.64a18.151,18.151,0,1,1,18.151-18.151A18.171,18.171,0,0,1,245.493,237.64Z" transform="translate(-162.746 -123.157)" fill="#5e48e9"/>
    <path id="Path_39422" data-name="Path 39422" d="M302.673,239a2.669,2.669,0,0,0,0,5.338,6.68,6.68,0,0,1,6.672,6.672,2.669,2.669,0,0,0,5.338,0A12.024,12.024,0,0,0,302.673,239Z" transform="translate(-219.926 -154.682)" fill="#5e48e9"/>
    <path id="Path_39423" data-name="Path 39423" d="M47.8,99.439a2.669,2.669,0,1,0-4.741,2.455l7.185,13.88a2.669,2.669,0,0,0,4.776-.072l4.35-9.057,4.724,9.129a2.672,2.672,0,0,0,2.371,1.442h.04a2.672,2.672,0,0,0,2.367-1.514l6.666-13.88a2.669,2.669,0,1,0-4.812-2.31l-4.35,9.057-4.725-9.129a2.669,2.669,0,0,0-4.776.072l-4.349,9.057Z" transform="translate(-31.348 -51.313)" fill="#5e48e9"/>
    <path id="Path_39424" data-name="Path 39424" d="M118.657,33.338a2.672,2.672,0,1,0-1.886-.782A2.689,2.689,0,0,0,118.657,33.338Z" transform="translate(-85.028)" fill="#5e48e9"/>
    <path id="Path_39425" data-name="Path 39425" d="M136.665,73.911V38.677A10.689,10.689,0,0,0,125.988,28H44.84a2.669,2.669,0,1,0,0,5.338h81.148a5.345,5.345,0,0,1,5.338,5.338V73.911a5.345,5.345,0,0,1-5.338,5.338H113.175c-.077,0-.152.005-.227.011A34.883,34.883,0,0,0,94.185,63.572l3.957-8.238,4.725,9.128a2.667,2.667,0,0,0,2.37,1.442h.041a2.67,2.67,0,0,0,2.366-1.514l6.666-13.88A2.669,2.669,0,0,0,109.5,48.2l-4.349,9.057-4.725-9.129a2.67,2.67,0,0,0-4.777.072L91.3,57.255l-4.724-9.129a2.67,2.67,0,0,0-4.742,2.455l5.908,11.412a34.749,34.749,0,0,0-14.46.953l5.973-12.437A2.669,2.669,0,0,0,74.44,48.2l-4.35,9.057-4.725-9.129a2.67,2.67,0,0,0-4.777.072l-4.349,9.057-4.725-9.129a2.669,2.669,0,0,0-4.741,2.455l7.185,13.88a2.669,2.669,0,0,0,4.777-.072l4.35-9.056,4.724,9.128a2.614,2.614,0,0,0,.282.424A34.929,34.929,0,0,0,52.554,79.249H10.677a5.345,5.345,0,0,1-5.338-5.338V38.677a5.345,5.345,0,0,1,5.338-5.338H21.619a2.669,2.669,0,1,0,0-5.338H10.677A10.689,10.689,0,0,0,0,38.677V73.911A10.689,10.689,0,0,0,10.677,84.588H50.1a34.692,34.692,0,0,0,49.933,41.828L121.213,147.6a9.051,9.051,0,0,0,12.8-12.8l-8.323-8.323a2.669,2.669,0,1,0-3.775,3.774l8.324,8.325a3.713,3.713,0,1,1-5.25,5.251l-20.483-20.484A34.668,34.668,0,0,0,115.4,84.588h10.588A10.689,10.689,0,0,0,136.665,73.911ZM82.747,125.694a29.362,29.362,0,1,1,29.362-29.362A29.4,29.4,0,0,1,82.747,125.694Z" fill="#5e48e9"/>
    <path id="Path_39426" data-name="Path 39426" d="M430.872,371.063a2.668,2.668,0,1,0,1.887-.782A2.688,2.688,0,0,0,430.872,371.063Z" transform="translate(-315.289 -250.918)" fill="#5e48e9"/>
  </g>
</svg>
