<svg xmlns="http://www.w3.org/2000/svg" xmlns:xlink="http://www.w3.org/1999/xlink" width="719.669" height="535.416" viewBox="0 0 719.669 535.416">
  <defs>
    <clipPath id="clip-path">
      <rect id="Rectangle_96" data-name="Rectangle 96" width="200.731" height="200.731" rx="16.866" fill="#3f77f2"/>
    </clipPath>
    <clipPath id="clip-path-2">
      <circle id="Ellipse_121" data-name="Ellipse 121" cx="42.426" cy="42.426" r="42.426" transform="matrix(0.911, -0.413, 0.413, 0.911, 0, 35.008)" fill="none"/>
    </clipPath>
  </defs>
  <g id="bulk-speed" transform="translate(775.509 -814.454)">
    <g id="Group_35655" data-name="Group 35655" transform="translate(-731.735 833.026)">
      <g id="Group_35654" data-name="Group 35654">
        <g id="Group_35653" data-name="Group 35653">
          <path id="Path_39427" data-name="Path 39427" d="M-300.66,1362.577H-444.745l18.632-88.917h106.821Z" transform="translate(682.786 -900.983)" fill="#878787"/>
          <g id="Group_35652" data-name="Group 35652">
            <rect id="Rectangle_91" data-name="Rectangle 91" width="620.168" height="398.736" rx="39.363" fill="#a5a5a5"/>
            <path id="Rectangle_92" data-name="Rectangle 92" d="M25.919,0H535.857a25.92,25.92,0,0,1,25.92,25.92V288.461a25.92,25.92,0,0,1-25.92,25.92H25.92A25.92,25.92,0,0,1,0,288.461V25.919A25.919,25.919,0,0,1,25.919,0Z" transform="translate(28.088 31.757)" fill="#878787"/>
            <path id="Path_39428" data-name="Path 39428" d="M-136.238,905.233v253.733a21.084,21.084,0,0,1-21.029,21.016H-656.3a21.085,21.085,0,0,1-21.03-21.016V905.233a21.085,21.085,0,0,1,21.03-21.017h499.033A21.085,21.085,0,0,1-136.238,905.233Z" transform="translate(717.206 -843.35)" fill="#fff"/>
          </g>
          <path id="Path_39429" data-name="Path 39429" d="M-270.6,1382.423H-505.02c-2.461,0-8.508-6.047-8.508-13.438v-1.78a13.477,13.477,0,0,1,13.438-13.438h234.418a13.478,13.478,0,0,1,13.438,13.438v1.78C-252.234,1376.376-258.282,1382.423-270.6,1382.423Z" transform="translate(692.965 -912.837)" fill="#a5a5a5"/>
          <rect id="Rectangle_93" data-name="Rectangle 93" width="80.628" height="8.212" rx="3.668" transform="translate(269.77 12.357)" fill="#878787"/>
        </g>
      </g>
      <circle id="Ellipse_108" data-name="Ellipse 108" cx="16.148" cy="16.148" r="16.148" transform="translate(293.936 359.27)" fill="#878787"/>
    </g>
    <path id="Path_39430" data-name="Path 39430" d="M-170.828,845.365v321.111a29.017,29.017,0,0,1-.163,3.177H-628.806a29.24,29.24,0,0,1-.162-3.177V845.365c0-17.078,14.558-30.911,32.532-30.911h393.075C-185.386,814.454-170.828,828.287-170.828,845.365Z" transform="translate(-21.686)" fill="#fd59a8"/>
    <path id="Path_39431" data-name="Path 39431" d="M-170.828,845.365v36.263h-458.14V845.365c0-17.078,14.558-30.911,32.532-30.911h393.075C-185.386,814.454-170.828,828.287-170.828,845.365Z" transform="translate(-21.686)" fill="#5e40ea"/>
    <circle id="Ellipse_109" data-name="Ellipse 109" cx="12.104" cy="12.104" r="12.104" transform="translate(-620.091 835.635)" fill="#fff"/>
    <circle id="Ellipse_110" data-name="Ellipse 110" cx="12.104" cy="12.104" r="12.104" transform="translate(-583.779 835.635)" fill="#fff"/>
    <circle id="Ellipse_111" data-name="Ellipse 111" cx="12.104" cy="12.104" r="12.104" transform="translate(-547.466 835.635)" fill="#fff"/>
    <g id="Group_35657" data-name="Group 35657" transform="translate(-597.47 923.06)">
      <rect id="Rectangle_94" data-name="Rectangle 94" width="200.731" height="200.731" rx="16.866" fill="#3f77f2"/>
      <g id="Group_35656" data-name="Group 35656" clip-path="url(#clip-path)">
        <rect id="Rectangle_95" data-name="Rectangle 95" width="200.731" height="200.731" rx="16.866" fill="#5bbfc1"/>
        <path id="Path_39432" data-name="Path 39432" d="M-646.22,1155.073l107.749-103.054a3.173,3.173,0,0,1,4.631.263l33.505,40.22a3.172,3.172,0,0,0,4.913-.046l79.825-99.589a3.173,3.173,0,0,1,5.351.646q48.032,103.194,96.065,206.387a3.173,3.173,0,0,1-3.3,4.483l-326.97-43.874A3.172,3.172,0,0,1-646.22,1155.073Z" transform="translate(578.482 -949.287)" fill="#5bbfc1"/>
      </g>
    </g>
    <path id="Path_39433" data-name="Path 39433" d="M-456.606,1234.551v55.885a22.817,22.817,0,0,1-22.82,22.813H-675.022a22.817,22.817,0,0,1-22.82-22.813v-55.885a22.819,22.819,0,0,1,22.82-22.82h195.595A22.819,22.819,0,0,1-456.606,1234.551Z" transform="translate(-11.494 -58.792)" fill="#dbd6f7"/>
    <rect id="Rectangle_97" data-name="Rectangle 97" width="213.586" height="50.787" rx="14.335" transform="translate(-695.511 1191.115)" fill="#fff"/>
    <g id="Group_35658" data-name="Group 35658" transform="translate(-686.321 1201.804)">
      <rect id="Rectangle_98" data-name="Rectangle 98" width="16.076" height="31.003" rx="3.528" fill="#e71b23"/>
      <rect id="Rectangle_99" data-name="Rectangle 99" width="16.076" height="31.003" rx="3.528" transform="translate(19.903)" fill="#e71b23"/>
      <rect id="Rectangle_100" data-name="Rectangle 100" width="16.076" height="31.003" rx="3.528" transform="translate(39.807)" fill="#e71b23"/>
      <rect id="Rectangle_101" data-name="Rectangle 101" width="16.076" height="31.003" rx="3.528" transform="translate(59.71)" fill="#fbcd34"/>
      <rect id="Rectangle_102" data-name="Rectangle 102" width="16.076" height="31.003" rx="3.528" transform="translate(79.613)" fill="#fbcd34"/>
      <rect id="Rectangle_103" data-name="Rectangle 103" width="16.076" height="31.003" rx="3.528" transform="translate(99.517)" fill="#8ddb2b"/>
      <rect id="Rectangle_104" data-name="Rectangle 104" width="16.076" height="31.003" rx="3.528" transform="translate(119.42)" fill="#8ddb2b"/>
      <rect id="Rectangle_105" data-name="Rectangle 105" width="16.076" height="31.003" rx="3.528" transform="translate(139.323)" fill="#21b032"/>
      <rect id="Rectangle_106" data-name="Rectangle 106" width="16.076" height="31.003" rx="3.528" transform="translate(159.227)" fill="#21b032"/>
      <rect id="Rectangle_107" data-name="Rectangle 107" width="16.076" height="31.003" rx="3.528" transform="translate(179.13)" fill="#21b032"/>
    </g>
    <path id="Path_39434" data-name="Path 39434" d="M-456.606,1234.551v5.5H-697.842v-5.5a22.819,22.819,0,0,1,22.82-22.82h195.595A22.819,22.819,0,0,1-456.606,1234.551Z" transform="translate(-11.494 -58.792)" fill="#5e48e5"/>
    <circle id="Ellipse_112" data-name="Ellipse 112" cx="6.335" cy="6.335" r="6.335" transform="translate(-689.592 1160.847)" fill="#dbd6f7"/>
    <circle id="Ellipse_113" data-name="Ellipse 113" cx="6.335" cy="6.335" r="6.335" transform="translate(-669.317 1160.847)" fill="#dbd6f7"/>
    <circle id="Ellipse_114" data-name="Ellipse 114" cx="6.335" cy="6.335" r="6.335" transform="translate(-649.043 1160.847)" fill="#dbd6f7"/>
    <g id="Group_35659" data-name="Group 35659" transform="translate(-775.509 909.571)">
      <path id="Path_39435" data-name="Path 39435" d="M-577.965,943.2v153.807a17.1,17.1,0,0,1-17.108,17.1H-758.4a17.1,17.1,0,0,1-17.108-17.1V943.2A17.1,17.1,0,0,1-758.4,926.092h163.328A17.109,17.109,0,0,1-577.965,943.2Z" transform="translate(775.509 -926.092)" fill="#3f77f2"/>
      <path id="Path_39436" data-name="Path 39436" d="M-632.937,968.941q-1.1-.707-2.234-1.375a65.794,65.794,0,0,0-33.558-9.133,65.785,65.785,0,0,0-39.917,13.41,66,66,0,0,0-26.227,52.734,65.794,65.794,0,0,0,7.159,29.957l26.545-13.4a36.282,36.282,0,0,1-3.971-16.56,36.345,36.345,0,0,1,13.683-28.442,36.268,36.268,0,0,1,22.727-7.961,36.26,36.26,0,0,1,19.544,5.677,37.027,37.027,0,0,1,3.716,2.717,36.327,36.327,0,0,1,13.149,28.009,36.239,36.239,0,0,1-3.532,15.663l26.558,13.4a65.806,65.806,0,0,0,6.714-29.06A66.089,66.089,0,0,0-632.937,968.941Z" transform="translate(769.495 -930.878)" fill="#fff"/>
      <path id="Path_39437" data-name="Path 39437" d="M-587.7,1026.163a65.805,65.805,0,0,1-6.714,29.06l-26.558-13.4a36.239,36.239,0,0,0,3.532-15.663,36.327,36.327,0,0,0-13.149-28.009,37.037,37.037,0,0,0-3.716-2.717l14.014-26.285q1.136.668,2.234,1.375A66.089,66.089,0,0,1-587.7,1026.163Z" transform="translate(754.612 -932.464)" fill="#fa5da7"/>
      <path id="Path_39438" data-name="Path 39438" d="M-628.382,968.941l-12.531,27.627a36.251,36.251,0,0,0-23.261-8.394,36.268,36.268,0,0,0-22.727,7.961l-17.19-24.292a65.785,65.785,0,0,1,39.917-13.41A65.824,65.824,0,0,1-628.382,968.941Z" transform="translate(764.94 -930.878)" fill="#5bbfc1"/>
      <circle id="Ellipse_115" data-name="Ellipse 115" cx="11.506" cy="11.506" r="11.506" transform="translate(90.674 90.756)" fill="#fff"/>
      <path id="Path_39439" data-name="Path 39439" d="M-661.5,1032.62c2.018-.808,32.4-43.6,32.4-43.6l-20.287,50.869" transform="translate(758.638 -935.404)" fill="#fff"/>
      <circle id="Ellipse_116" data-name="Ellipse 116" cx="5.181" cy="5.181" r="5.181" transform="translate(97.134 97.216)" fill="#b8adf2"/>
      <rect id="Rectangle_108" data-name="Rectangle 108" width="142.098" height="4.128" rx="2.064" transform="translate(27.676 133.215)" fill="#fff"/>
      <rect id="Rectangle_109" data-name="Rectangle 109" width="142.098" height="4.128" rx="2.064" transform="translate(27.676 143.21)" fill="#fff"/>
      <rect id="Rectangle_110" data-name="Rectangle 110" width="142.098" height="4.128" rx="2.064" transform="translate(27.676 153.205)" fill="#fff"/>
      <rect id="Rectangle_111" data-name="Rectangle 111" width="32.591" height="11.733" rx="5.866" transform="translate(151.089 51.52)" fill="#fff"/>
    </g>
    <g id="Group_35660" data-name="Group 35660" transform="translate(-357.583 988.779)">
      <rect id="Rectangle_112" data-name="Rectangle 112" width="102.513" height="14.145" rx="7.073" fill="#f6f4fb"/>
      <rect id="Rectangle_113" data-name="Rectangle 113" width="102.513" height="14.145" rx="7.073" transform="translate(0 29.233)" fill="#f6f4fb"/>
      <rect id="Rectangle_114" data-name="Rectangle 114" width="102.513" height="14.145" rx="7.073" transform="translate(0 58.467)" fill="#f6f4fb"/>
      <rect id="Rectangle_115" data-name="Rectangle 115" width="102.513" height="14.145" rx="7.073" transform="translate(0 87.7)" fill="#f6f4fb"/>
      <rect id="Rectangle_116" data-name="Rectangle 116" width="102.513" height="14.145" rx="7.073" transform="translate(0 116.933)" fill="#f6f4fb"/>
    </g>
    <g id="Group_35665" data-name="Group 35665" transform="translate(-453.352 896.083)">
      <g id="Group_35662" data-name="Group 35662" transform="translate(136.322 74.907)">
        <g id="Group_35661" data-name="Group 35661" transform="translate(0 4.307)">
          <rect id="Rectangle_117" data-name="Rectangle 117" width="41.645" height="112.442" rx="20.823" transform="matrix(-0.985, 0.17, -0.17, -0.985, 60.156, 110.805)" fill="#b9b0f1"/>
          <ellipse id="Ellipse_117" data-name="Ellipse 117" cx="11.452" cy="6.247" rx="11.452" ry="6.247" transform="translate(10.631 11.143) rotate(-9.789)" fill="#988bed"/>
        </g>
        <rect id="Rectangle_118" data-name="Rectangle 118" width="41.645" height="112.442" rx="20.823" transform="translate(106.623 110.805) rotate(170.211)" fill="#b9b0f1"/>
        <ellipse id="Ellipse_118" data-name="Ellipse 118" cx="12.494" cy="6.247" rx="12.494" ry="6.247" transform="translate(56.488 11.165) rotate(-6.113)" fill="#988bed"/>
      </g>
      <path id="Path_39440" data-name="Path 39440" d="M-382.218,1094.5c4.1,1.746,9.272,3.95,16.327,3.463a30.1,30.1,0,0,0,11.373-3.127c14.3,3.852,37.11,7.383,61.741-.375,16.707-5.261,29.445-14.2,37.6-19.927a175.554,175.554,0,0,0,26.26-22.618c10.545-16.733,7.07-34.357-2.062-39.785-7.654-4.549-18.67,6.554-20.481,7.406-4.317,6.8-10.293,9.756-19.59,19.7-7.724,8.26-17.643,18.868-31.687,26.506-20.867,11.349-42.561,11.639-56.92,10.09-15.512-9.647-19.97-11.11-20.738-10.214-.836.973,2.2,5.21,3.913,7.207a22.615,22.615,0,0,0,3.5,3.308,24.675,24.675,0,0,1-10.2-.173c-9.353-2.235-11.777-3.2-11.777-3.2-.742-.294-1.915-.781-2.3-.349-.67.742,1.4,3.711,3.312,6.16q-2.5-.284-2.905.5-.737,1.447,5.617,6.509c-.833.144-1.857.437-2.053,1.1C-393.876,1088.667-386.828,1092.54-382.218,1094.5Z" transform="translate(397.397 -925.176)" fill="#b9b0f1"/>
      <path id="Path_39441" data-name="Path 39441" d="M-232.37,1021.4c-1.626,1.018-10.913,6.838-14.932,16.316-2.532,5.971-2.386,12.012,1.426,27.489,7.435,30.174,17.125,48.787,14.864,66.968-.508,4.088-1.424,8.24-1.424,8.241-2.382,9.719-6.946,16.679-16.555,47.659-6.607,21.282-9.907,31.919-10.25,37.19-2.273,34.607,17.008,75.717,19.9,81.773,3.478,7.274,8.65,16.969,4.64,24.633-3.608,6.891-11.32,5.778-18.963,14.824-5.355,6.342-9.9,16.772-6.6,20.747,2.811,3.371,9.434-.1,35.364-7.411,20.806-5.877,26.832-6.547,29.925-12.388,2.529-4.776,1.3-9.616-2.645-22.008-10.732-33.718-15.5-41.417-18.435-58.043-1.681-9.481-3.16-18.37-1.112-29.8,1.4-7.8,5.213-15.859,12.79-31.667,7.915-16.525,11.886-24.8,14.155-24.422,5.282.881-3.9,27.892,9.195,56.783,8.192,18.083,21.306,32.544,34.185,46.075a252.312,252.312,0,0,0,19.171,18.144c-2,4.113-8.855,19.38-2.1,32.654.942,1.856,4.263,8.38,8.294,8.19,2.61-.124,4.351-3.025,13.251-21.251,3.28-6.725,4.949-10.13,5.923-12.369,5.585-12.762,8.375-19.14,7.5-23.919-.8-4.373-3.075-5.369-16-17.241-8.591-7.889-16.516-14.547-22.3-22.807-8.61-12.3-9.078-28.574-10.014-61.13-.281-9.777.1-10.678-.25-29.21-.32-16.913-.9-30.1-1.069-33.557-2.165-44.1-3.74-76.547-24.67-95.129-5.983-5.312-17.348-12.878-38.008-14.6-2.312.5-5.524,1.293-9.283,2.5C-221.105,1016.15-227.03,1018.052-232.37,1021.4Z" transform="translate(377.267 -925.337)" fill="#d9d4f5"/>
      <path id="Path_39442" data-name="Path 39442" d="M-59.3,1119.688a40.27,40.27,0,0,0-8.308-14.3,47.725,47.725,0,0,0-8.836-7.811c-4.6-14.08-14.113-35.106-34.076-51.486-13.542-11.111-27.993-16.886-37.247-20.585a175.491,175.491,0,0,0-33.3-9.617c-19.775.321-32.63,12.869-32.181,23.482.377,8.9,10.038,15.041,11.742,16.091a177.1,177.1,0,0,1,32.865,2.636c11.139,1.949,25.445,4.453,39.519,12.034,20.913,11.265,33.02,29.269,39.575,42.138.4,18.263,1.618,22.795,2.789,22.948,1.272.168,3.162-4.688,3.894-7.217a22.663,22.663,0,0,0,.858-4.738,18.069,18.069,0,0,1,7.441,7.906c2.07,4.477,1.647,8.933,4.635,17.119.371,1.019,1.537,4.132,2.966,4.127,1.074-.005,1.753-1.782,2.291-1.483.863.481,1.745,1.954,2.27,2.089.5.129.653-.881,2.054-5.862C-58.4,1140.236-55.73,1130.737-59.3,1119.688Z" transform="translate(370.146 -925.893)" fill="#d9d4f5"/>
      <g id="Group_35664" data-name="Group 35664" transform="translate(88.704 0)">
        <g id="Group_35663" data-name="Group 35663" transform="translate(0)" clip-path="url(#clip-path-2)">
          <circle id="Ellipse_119" data-name="Ellipse 119" cx="42.426" cy="42.426" r="42.426" transform="matrix(0.911, -0.413, 0.413, 0.911, 0, 35.008)" fill="#d9d4f5"/>
          <circle id="Ellipse_120" data-name="Ellipse 120" cx="35.911" cy="35.911" r="35.911" transform="translate(-19.872 73.366) rotate(-78.584)" fill="#5f48e5"/>
        </g>
      </g>
      <path id="Path_39443" data-name="Path 39443" d="M-247.3,940.015c-1.353.3,2.65,10.322-.991,24.376-3.474,13.411-11.247,20.213-9.923,21.407,1.419,1.281,12.459-4.643,16.668-15.234C-235.784,956.063-245.535,939.628-247.3,940.015Z" transform="translate(376.822 -914.663)" fill="#f5f5f5"/>
    </g>
    <g id="Group_35670" data-name="Group 35670" transform="translate(-541.661 975)">
      <rect id="Rectangle_119" data-name="Rectangle 119" width="173.002" height="160.566" rx="34.099" fill="#fff"/>
      <g id="Group_35669" data-name="Group 35669" transform="translate(21.475 21.07)">
        <g id="Group_35668" data-name="Group 35668">
          <path id="Path_39444" data-name="Path 39444" d="M-395.918,1027.616v11.622a55.32,55.32,0,0,1,54.019,54.019h11.621A66.96,66.96,0,0,0-395.918,1027.616Z" transform="translate(464.012 -1027.616)" fill="#fb7ebc"/>
          <path id="Path_39445" data-name="Path 39445" d="M-448.891,1059.857l-8.208-8.208a66.621,66.621,0,0,0-18.74,45.165h11.622A55.049,55.049,0,0,1-448.891,1059.857Z" transform="translate(475.839 -1031.172)" fill="#b9acf5"/>
          <path id="Path_39446" data-name="Path 39446" d="M-475.839,1107.544A66.438,66.438,0,0,0-464.191,1144h14.836a55,55,0,0,1-14.862-36.46Z" transform="translate(475.839 -1039.444)" fill="#dcd6f9"/>
          <path id="Path_39447" data-name="Path 39447" d="M-451.807,1046.356l8.209,8.208a55.038,55.038,0,0,1,36.957-15.326v-11.622A66.613,66.613,0,0,0-451.807,1046.356Z" transform="translate(472.283 -1027.616)" fill="#5bbfc1"/>
          <path id="Path_39448" data-name="Path 39448" d="M-335.1,1107.544A55,55,0,0,1-349.959,1144h14.835a66.424,66.424,0,0,0,11.648-36.46Z" transform="translate(457.21 -1039.444)" fill="#fd59a8"/>
          <rect id="Rectangle_120" data-name="Rectangle 120" width="3.406" height="9.291" transform="translate(65.591 20.862)" fill="#7b7b7c"/>
          <rect id="Rectangle_121" data-name="Rectangle 121" width="3.406" height="9.291" transform="translate(65.591 104.56)" fill="#7b7b7c"/>
          <rect id="Rectangle_122" data-name="Rectangle 122" width="3.406" height="9.291" transform="translate(113.789 65.653) rotate(90)" fill="#7b7b7c"/>
          <rect id="Rectangle_123" data-name="Rectangle 123" width="3.406" height="9.291" transform="translate(30.09 65.653) rotate(90)" fill="#7b7b7c"/>
          <g id="Group_35666" data-name="Group 35666" transform="translate(33.213 33.276)">
            <rect id="Rectangle_124" data-name="Rectangle 124" width="3.406" height="9.291" transform="translate(65.753 0) rotate(45)" fill="#7b7b7c"/>
            <rect id="Rectangle_125" data-name="Rectangle 125" width="3.406" height="9.291" transform="translate(6.569 59.184) rotate(45)" fill="#7b7b7c"/>
            <rect id="Rectangle_126" data-name="Rectangle 126" width="3.406" height="9.291" transform="translate(68.161 65.753) rotate(135)" fill="#7b7b7c"/>
            <rect id="Rectangle_127" data-name="Rectangle 127" width="3.406" height="9.291" transform="translate(8.978 6.569) rotate(135)" fill="#7b7b7c"/>
          </g>
          <rect id="Rectangle_128" data-name="Rectangle 128" width="3.406" height="9.291" transform="translate(65.591 20.862)" fill="#7b7b7c"/>
          <rect id="Rectangle_129" data-name="Rectangle 129" width="3.406" height="9.291" transform="translate(65.591 104.56)" fill="#7b7b7c"/>
          <rect id="Rectangle_130" data-name="Rectangle 130" width="3.406" height="9.291" transform="translate(113.789 65.653) rotate(90)" fill="#7b7b7c"/>
          <rect id="Rectangle_131" data-name="Rectangle 131" width="3.406" height="9.291" transform="translate(30.09 65.653) rotate(90)" fill="#7b7b7c"/>
          <g id="Group_35667" data-name="Group 35667" transform="translate(23.733 23.795)">
            <rect id="Rectangle_132" data-name="Rectangle 132" width="3.406" height="9.291" transform="translate(85.811 24.077) rotate(67.34)" fill="#7b7b7c"/>
            <rect id="Rectangle_133" data-name="Rectangle 133" width="3.406" height="9.291" transform="translate(8.573 56.323) rotate(67.34)" fill="#7b7b7c"/>
            <rect id="Rectangle_134" data-name="Rectangle 134" width="3.406" height="9.291" transform="translate(63.046 85.811) rotate(157.34)" fill="#7b7b7c"/>
            <rect id="Rectangle_135" data-name="Rectangle 135" width="3.406" height="9.291" transform="translate(30.8 8.573) rotate(157.34)" fill="#7b7b7c"/>
          </g>
          <rect id="Rectangle_136" data-name="Rectangle 136" width="3.406" height="9.291" transform="translate(83.392 23.704) rotate(22.34)" fill="#7b7b7c"/>
          <rect id="Rectangle_137" data-name="Rectangle 137" width="3.406" height="9.291" transform="translate(51.578 101.121) rotate(22.34)" fill="#7b7b7c"/>
          <rect id="Rectangle_138" data-name="Rectangle 138" width="3.406" height="9.291" transform="translate(110.946 83.454) rotate(112.34)" fill="#7b7b7c"/>
          <rect id="Rectangle_139" data-name="Rectangle 139" width="3.406" height="9.291" transform="translate(33.53 51.64) rotate(112.34)" fill="#7b7b7c"/>
          <circle id="Ellipse_122" data-name="Ellipse 122" cx="9.843" cy="9.843" r="9.843" transform="translate(59.177 55.761)" fill="#7b7b7c"/>
          <path id="Path_39449" data-name="Path 39449" d="M-397.9,1095.556c.23-1.149,23-14.49,23-14.49l-15.41,24.84Z" transform="translate(464.304 -1035.526)" fill="#7b7b7c"/>
        </g>
      </g>
    </g>
    <circle id="Ellipse_123" data-name="Ellipse 123" cx="41.874" cy="41.874" r="41.874" transform="translate(-610.496 1266.122)" fill="#5e40ea"/>
    <g id="Group_35671" data-name="Group 35671" transform="translate(-590.493 1283.972)">
      <path id="Path_39450" data-name="Path 39450" d="M-551.891,1368.545a15.735,15.735,0,0,0-3.446,21.983,15.736,15.736,0,0,0,21.983,3.445,15.731,15.731,0,0,0,3.446-21.983A15.731,15.731,0,0,0-551.891,1368.545Zm15.935,21.861a11.315,11.315,0,0,1-15.807-2.484,11.315,11.315,0,0,1,2.473-15.809,11.317,11.317,0,0,1,15.814,2.479A11.316,11.316,0,0,1-535.956,1390.406Z" transform="translate(558.358 -1365.523)" fill="#fff"/>
      <rect id="Rectangle_140" data-name="Rectangle 140" width="6.338" height="10.179" transform="matrix(0.808, -0.589, 0.589, 0.808, 21.126, 28.512)" fill="#fff"/>
      <rect id="Rectangle_141" data-name="Rectangle 141" width="13.635" height="16.708" rx="3.736" transform="matrix(0.808, -0.589, 0.589, 0.808, 22.363, 36.404)" fill="#fff"/>
    </g>
    <circle id="Ellipse_124" data-name="Ellipse 124" cx="55.149" cy="55.149" r="55.149" transform="translate(-166.137 878.369)" fill="#5bbfc1"/>
    <path id="Path_39451" data-name="Path 39451" d="M-31.047,974.337c.366.383.743.75,1.12,1.116.006.007.009.014.015.02s.02.015.03.025A39.192,39.192,0,0,0-2.419,986.559,39.191,39.191,0,0,0,25.043,975.5c.009-.009.021-.016.031-.026s.009-.014.015-.02c.378-.366.756-.734,1.121-1.117A38.835,38.835,0,0,0,37.027,947.4v-.01a38.9,38.9,0,0,0-10.4-26.493A39.667,39.667,0,0,0-2.419,908.232,39.668,39.668,0,0,0-31.463,920.9a38.9,38.9,0,0,0-10.4,26.481l0,.016,0,.015A38.835,38.835,0,0,0-31.047,974.337Zm-3.417-23.347h13.084A52.246,52.246,0,0,0-19.1,963.067,39.283,39.283,0,0,0-27.074,968,31.621,31.621,0,0,1-34.465,950.99Zm39.32-23.462a32.737,32.737,0,0,1-7.274.821,32.737,32.737,0,0,1-7.274-.821,44.738,44.738,0,0,1,7.274-10.619A44.738,44.738,0,0,1,4.856,927.528Zm1.859-10.781a32.477,32.477,0,0,1,10.295,5.144,32.068,32.068,0,0,1-5.335,3.25A52.083,52.083,0,0,0,6.715,916.748Zm-23.227,8.394a32.068,32.068,0,0,1-5.335-3.25,32.486,32.486,0,0,1,10.295-5.144A52.083,52.083,0,0,0-16.512,925.142Zm24.034,9.139a45,45,0,0,1,1.816,9.52H-14.176a45,45,0,0,1,1.816-9.52,39.876,39.876,0,0,0,9.941,1.259A39.876,39.876,0,0,0,7.523,934.281Zm1.816,16.71a45.018,45.018,0,0,1-1.86,9.663,39.867,39.867,0,0,0-9.9-1.249,39.867,39.867,0,0,0-9.9,1.249,45.018,45.018,0,0,1-1.86-9.663ZM4.79,967.4a44.725,44.725,0,0,1-7.209,10.481A44.725,44.725,0,0,1-9.628,967.4a32.725,32.725,0,0,1,7.209-.808A32.725,32.725,0,0,1,4.79,967.4Zm6.825,2.374a32.076,32.076,0,0,1,5.3,3.212,31.819,31.819,0,0,1-10.234,5.093A52.045,52.045,0,0,0,11.616,969.776Zm-23.14,8.305a31.819,31.819,0,0,1-10.234-5.093,32.076,32.076,0,0,1,5.3-3.212A52.045,52.045,0,0,0-11.524,978.081Zm-15.631-51.2a39.191,39.191,0,0,0,8.016,4.982A52.2,52.2,0,0,0-21.381,943.8H-34.463A31.7,31.7,0,0,1-27.155,926.879ZM29.626,943.8H16.544A52.2,52.2,0,0,0,14.3,931.861a39.214,39.214,0,0,0,8.016-4.982A31.7,31.7,0,0,1,29.626,943.8ZM22.238,968a39.288,39.288,0,0,0-7.975-4.936,52.245,52.245,0,0,0,2.281-12.076H29.627A31.626,31.626,0,0,1,22.238,968Z" transform="translate(-108.569 -13.878)" fill="#fff" stroke="#5bbfc1" stroke-miterlimit="10" stroke-width="1"/>
  </g>
</svg>
