<svg xmlns="http://www.w3.org/2000/svg" xmlns:xlink="http://www.w3.org/1999/xlink" width="685.649" height="545.818" viewBox="0 0 685.649 545.818">
  <defs>
    <clipPath id="clip-path">
      <circle id="Ellipse_136" data-name="Ellipse 136" cx="46.887" cy="46.887" r="46.887" transform="translate(0 81.866) rotate(-60.81)" fill="none"/>
    </clipPath>
    <clipPath id="clip-path-2">
      <circle id="Ellipse_139" data-name="Ellipse 139" cx="79.499" cy="79.499" r="79.499" transform="translate(0 112.429) rotate(-45)" fill="none"/>
    </clipPath>
    <clipPath id="clip-path-3">
      <rect id="Rectangle_166" data-name="Rectangle 166" width="35.39" height="83.659" rx="8.055" transform="translate(0 33.861) rotate(-73.091)" fill="#fd59a8"/>
    </clipPath>
  </defs>
  <g id="checkup" transform="translate(-319.6 -4531.873)">
    <g id="Group_35675" data-name="Group 35675" transform="translate(866.241 4905.391)">
      <g id="Group_35674" data-name="Group 35674">
        <g id="Group_35673" data-name="Group 35673">
          <path id="Path_39452" data-name="Path 39452" d="M917.323,5030.284l19.5,3.5a.173.173,0,0,0,.188-.1l3.021-6.382a3.994,3.994,0,0,1,6.77-.733l4.318,5.586a.174.174,0,0,0,.2.055l18.3-7.6a.173.173,0,0,0,.106-.182l-.909-7a3.965,3.965,0,0,1,.165-1.774,4.043,4.043,0,0,1,2.055-2.337,3.946,3.946,0,0,1,3.079-.166l6.653,2.366a.173.173,0,0,0,.2-.064l11.286-16.282a.169.169,0,0,0,.021-.044.173.173,0,0,0-.031-.167l-4.551-5.4a4,4,0,0,1,2.145-6.464l6.877-1.605a.174.174,0,0,0,.134-.164l.691-19.8a.177.177,0,0,0-.122-.174l-6.747-2.081a3.948,3.948,0,0,1-2.369-1.975,4.043,4.043,0,0,1-.25-3.1,3.972,3.972,0,0,1,.929-1.521l4.916-5.069a.174.174,0,0,0,.025-.21L983.8,4934.372a.175.175,0,0,0-.2-.079l-6.8,1.9a3.994,3.994,0,0,1-4.987-4.637l1.395-6.922a.177.177,0,0,0-.092-.191l-17.723-8.853a.176.176,0,0,0-.208.041l-4.7,5.273a3.995,3.995,0,0,1-6.7-1.2l-2.57-6.578a.173.173,0,0,0-.18-.11l-19.7,2.134a.174.174,0,0,0-.153.146l-1.1,6.975a4.012,4.012,0,0,1-2.726,3.183,3.947,3.947,0,0,1-3.562-.571l-5.717-4.146a.176.176,0,0,0-.212.006l-15.416,12.443a.173.173,0,0,0-.05.2l2.845,6.464a3.918,3.918,0,0,1,.143,2.854,3.962,3.962,0,0,1-4.022,2.743l-7.051-.4a.176.176,0,0,0-.174.12l-6.241,18.8a.172.172,0,0,0,.069.2l5.888,3.9a3.963,3.963,0,0,1,1.584,4.6,3.919,3.919,0,0,1-1.822,2.2l-6.145,3.479a.175.175,0,0,0-.083.193l4.916,19.192a.174.174,0,0,0,.167.131l7.06.1a3.942,3.942,0,0,1,3.2,1.673,4.012,4.012,0,0,1,.284,4.18l-3.289,6.25a.171.171,0,0,0,.035.208l14.51,13.487a.174.174,0,0,0,.211.021l5.993-3.737a3.994,3.994,0,0,1,6.092,3.043l.612,7.036A.172.172,0,0,0,917.323,5030.284Zm11.472-29.762A28.564,28.564,0,1,1,964.9,4982.41,28.564,28.564,0,0,1,928.795,5000.521Z" transform="translate(-877.39 -4913.009)" fill="#d9d4f5"/>
        </g>
      </g>
    </g>
    <path id="Path_39453" data-name="Path 39453" d="M677.654,4621.281v261.707a22.31,22.31,0,0,0,22.311,22.311H953.242a22.318,22.318,0,0,0,22.321-22.311V4621.281a22.318,22.318,0,0,0-22.321-22.311H699.965A22.31,22.31,0,0,0,677.654,4621.281Z" transform="translate(-7.157 -1.341)" fill="#d9d4f5"/>
    <path id="Path_39454" data-name="Path 39454" d="M677.654,4621.281v28.808H975.563v-28.808a22.318,22.318,0,0,0-22.321-22.311H699.965A22.31,22.31,0,0,0,677.654,4621.281Z" transform="translate(-7.157 -1.341)" fill="#5e40ea"/>
    <circle id="Ellipse_125" data-name="Ellipse 125" cx="10.395" cy="10.395" r="10.395" transform="translate(925.267 4612.765)" fill="#fff"/>
    <circle id="Ellipse_126" data-name="Ellipse 126" cx="10.395" cy="10.395" r="10.395" transform="translate(894.587 4612.765)" fill="#fff"/>
    <circle id="Ellipse_127" data-name="Ellipse 127" cx="10.395" cy="10.395" r="10.395" transform="translate(863.908 4612.765)" fill="#fff"/>
    <path id="Path_39455" data-name="Path 39455" d="M571.183,4668.058v261.706a22.31,22.31,0,0,0,22.31,22.311H846.771a22.319,22.319,0,0,0,22.321-22.311V4668.058a22.319,22.319,0,0,0-22.321-22.311H593.493A22.31,22.31,0,0,0,571.183,4668.058Z" transform="translate(-5.029 -2.276)" fill="#5bbfc1"/>
    <path id="Path_39456" data-name="Path 39456" d="M571.183,4668.058v28.808H869.092v-28.808a22.319,22.319,0,0,0-22.321-22.311H593.493A22.31,22.31,0,0,0,571.183,4668.058Z" transform="translate(-5.029 -2.276)" fill="#5bbfc1"/>
    <circle id="Ellipse_128" data-name="Ellipse 128" cx="43.397" cy="43.397" r="43.397" transform="translate(622.536 4531.873)" fill="#fd59a8"/>
    <path id="Path_39457" data-name="Path 39457" d="M703.4,4575.537v-.024a30.609,30.609,0,0,0-8.184-20.838,31.19,31.19,0,0,0-45.71,0,30.609,30.609,0,0,0-8.186,20.847v.008a30.563,30.563,0,0,0,8.512,21.2c.287.3.584.591.882.879l.012.016c.008.008.017.013.024.021a31.182,31.182,0,0,0,43.221,0c.007-.007.016-.012.023-.02l.013-.016c.3-.288.594-.577.882-.878A30.559,30.559,0,0,0,703.4,4575.537Zm-11.638,16.205a30.888,30.888,0,0,0-6.276-3.885,41.049,41.049,0,0,0,1.8-9.5h10.3A24.9,24.9,0,0,1,691.765,4591.742Zm-19.4-40.207a35.225,35.225,0,0,1,5.724,8.356,25.647,25.647,0,0,1-11.448,0A35.225,35.225,0,0,1,672.363,4551.535Zm-11.09,6.479a25.2,25.2,0,0,1-4.2-2.559,25.573,25.573,0,0,1,8.1-4.046A41.059,41.059,0,0,0,661.273,4558.014Zm18.277-6.6a25.587,25.587,0,0,1,8.1,4.046,25.2,25.2,0,0,1-4.2,2.559A40.916,40.916,0,0,0,679.55,4551.409Zm-7.187,14.786a31.4,31.4,0,0,0,7.823-.99,35.435,35.435,0,0,1,1.429,7.491h-18.5a35.373,35.373,0,0,1,1.429-7.491A31.393,31.393,0,0,0,672.363,4566.195Zm9.252,12.16a35.464,35.464,0,0,1-1.464,7.6,31.358,31.358,0,0,0-15.575,0,35.341,35.341,0,0,1-1.464-7.6Zm-9.252,12.278a25.753,25.753,0,0,1,5.672.635,35.166,35.166,0,0,1-5.672,8.247,35.168,35.168,0,0,1-5.672-8.247A25.766,25.766,0,0,1,672.363,4590.633Zm-7.165,9.039a4.5,4.5,0,1,1-3.878-6.536A41,41,0,0,0,665.2,4599.672Zm18.209-6.536a4.5,4.5,0,1,1-3.878,6.536A41,41,0,0,0,683.407,4593.136Zm14.172-20.44H687.284a41.086,41.086,0,0,0-1.763-9.394,30.952,30.952,0,0,0,6.307-3.921A24.945,24.945,0,0,1,697.579,4572.7ZM652.9,4559.381a30.925,30.925,0,0,0,6.307,3.921,41.037,41.037,0,0,0-1.763,9.394h-10.3A24.949,24.949,0,0,1,652.9,4559.381Zm-5.752,18.974h10.3a41.048,41.048,0,0,0,1.794,9.5,30.885,30.885,0,0,0-6.275,3.885A24.894,24.894,0,0,1,647.146,4578.354Z" transform="translate(-6.431 -0.257)" fill="#fff" stroke="#fd59a8" stroke-miterlimit="10" stroke-width="1"/>
    <path id="Path_39458" data-name="Path 39458" d="M615.043,4705.311v261.707a22.31,22.31,0,0,0,22.311,22.311H890.632a22.319,22.319,0,0,0,22.321-22.311V4705.311A22.319,22.319,0,0,0,890.632,4683H637.354A22.31,22.31,0,0,0,615.043,4705.311Z" transform="translate(-5.905 -3.021)" fill="#3f77f2"/>
    <path id="Path_39459" data-name="Path 39459" d="M615.043,4705.311v28.808h297.91v-28.808A22.319,22.319,0,0,0,890.632,4683H637.354A22.31,22.31,0,0,0,615.043,4705.311Z" transform="translate(-5.905 -3.021)" fill="#fd59a8"/>
    <circle id="Ellipse_129" data-name="Ellipse 129" cx="10.395" cy="10.395" r="10.395" transform="translate(863.908 4695.115)" fill="#fff"/>
    <circle id="Ellipse_130" data-name="Ellipse 130" cx="10.395" cy="10.395" r="10.395" transform="translate(833.228 4695.115)" fill="#fff"/>
    <circle id="Ellipse_131" data-name="Ellipse 131" cx="10.395" cy="10.395" r="10.395" transform="translate(802.549 4695.115)" fill="#fff"/>
    <g id="Group_35676" data-name="Group 35676" transform="translate(647.598 4794.139)">
      <rect id="Rectangle_142" data-name="Rectangle 142" width="52.949" height="12.918" rx="6.459" transform="translate(52.949 12.918) rotate(-180)" fill="#fff"/>
      <rect id="Rectangle_143" data-name="Rectangle 143" width="52.949" height="12.918" rx="6.459" transform="translate(52.949 40.368) rotate(180)" fill="#fff"/>
      <rect id="Rectangle_144" data-name="Rectangle 144" width="52.949" height="12.918" rx="6.459" transform="translate(52.949 67.818) rotate(-180)" fill="#fff"/>
      <rect id="Rectangle_145" data-name="Rectangle 145" width="52.949" height="12.918" rx="6.459" transform="translate(52.949 95.268) rotate(-180)" fill="#fff"/>
    </g>
    <rect id="Rectangle_146" data-name="Rectangle 146" width="221.754" height="22.606" rx="11.303" transform="translate(865.081 4943.321) rotate(180)" fill="#fff"/>
    <g id="Group_35682" data-name="Group 35682" transform="translate(319.6 4540.897)">
      <g id="Group_35678" data-name="Group 35678" transform="translate(78.654 77.117)">
        <g id="Group_35677" data-name="Group 35677" transform="translate(50.771 9.061)">
          <rect id="Rectangle_147" data-name="Rectangle 147" width="46.024" height="124.265" rx="23.012" transform="translate(31.348 0) rotate(14.612)" fill="#bdb4f5"/>
          <ellipse id="Ellipse_132" data-name="Ellipse 132" cx="6.904" cy="12.657" rx="6.904" ry="12.657" transform="translate(35.821 22.072) rotate(-75.388)" fill="#9c8ff1"/>
        </g>
        <rect id="Rectangle_148" data-name="Rectangle 148" width="46.024" height="124.265" rx="23.012" transform="translate(31.347 0) rotate(14.612)" fill="#bdb4f5"/>
        <ellipse id="Ellipse_133" data-name="Ellipse 133" cx="6.904" cy="13.807" rx="6.904" ry="13.807" transform="translate(34.736 23.496) rotate(-79.064)" fill="#9c8ff1"/>
      </g>
      <path id="Path_39460" data-name="Path 39460" d="M652.952,4757.8c-4.729,1.367-10.7,3.095-18.375,1.617a33.288,33.288,0,0,1-12.057-4.95c-16.2,2.313-41.7,3.137-67.682-8.665-17.626-8.006-30.4-19.517-38.586-26.889a193.973,193.973,0,0,1-25.784-28.323c-9.331-19.766-3.162-38.635,7.581-43.37,9-3.966,19.813,2.615,21.685,3.791a195.8,195.8,0,0,0,18.651,31.3c7.369,10.094,16.833,23.058,31.217,33.314,21.374,15.24,45.136,18.46,61.095,18.68,18.307-8.511,23.392-9.519,24.115-8.433.787,1.18-3.1,5.423-5.256,7.383a24.994,24.994,0,0,1-4.28,3.162,27.251,27.251,0,0,0,11.215,1.174c10.56-1.2,13.348-1.933,13.348-1.933.854-.224,2.205-.6,2.575-.074.634.9-2.038,3.883-4.457,6.314q2.784.023,3.119.941.616,1.685-7.033,6.39c.895.268,1.98.728,2.105,1.486C666.521,4752.952,658.27,4756.258,652.952,4757.8Z" transform="translate(-322.923 -4543.177)" fill="#bdb4f5"/>
      <path id="Path_39461" data-name="Path 39461" d="M514.934,4650.769c1.7,1.272,11.383,8.545,14.928,19.355,2.233,6.812,1.511,13.451-4.125,30.139-10.991,32.539-23.392,52.136-22.592,72.367.18,4.549.8,9.207.8,9.207,1.72,10.924,6.1,19.013,13.8,54.022,5.3,24.05,7.944,36.07,7.832,41.907-.711,38.321-25.765,81.8-29.517,88.2-4.506,7.688-11.1,17.883-7.4,26.7,3.333,7.923,11.929,7.415,19.505,18.087,5.308,7.482,9.346,19.389,5.335,23.46-3.408,3.452-10.38-.982-38.255-11.447-22.367-8.4-28.94-9.7-31.8-16.423-2.342-5.493-.541-10.71,4.957-23.99,14.952-36.134,20.915-44.17,25.695-62.207,2.731-10.285,5.186-19.937,3.993-32.712-.814-8.714-4.267-17.948-11.143-36.061-7.181-18.933-10.785-28.412-13.318-28.21-5.9.479,1.7,31.078-15.4,61.678-10.7,19.151-26.487,33.858-41.927,47.562a278.7,278.7,0,0,1-22.8,18.2c1.821,4.715,7.951,22.165-.72,36.155-1.209,1.956-5.474,8.832-9.9,8.249-2.863-.379-4.511-3.736-12.619-24.634-2.987-7.709-4.508-11.614-5.372-14.171-4.966-14.574-7.445-21.855-6.035-27.035,1.289-4.742,3.885-5.628,19.223-17.5,10.193-7.89,19.539-14.485,26.677-23.044,10.625-12.74,12.653-30.623,16.707-66.388,1.218-10.741.883-11.769,2.991-32.144,1.923-18.6,3.788-33.068,4.3-36.855,6.481-48.36,11.23-83.949,36.007-102.467,7.082-5.292,20.3-12.57,43.213-12.542,2.5.771,5.962,1.937,9.989,3.613C503.017,4643.944,509.365,4646.588,514.934,4650.769Z" transform="translate(-319.977 -4543.023)" fill="#ddd8f9"/>
      <path id="Path_39462" data-name="Path 39462" d="M322.727,4743.013a44.5,44.5,0,0,1,10.477-14.97,52.7,52.7,0,0,1,10.457-7.781c6.369-15.079,18.8-37.349,42.31-53.534,15.945-10.977,32.394-15.993,42.929-19.207a194.009,194.009,0,0,1,37.561-7.5c21.746,2.191,34.738,17.2,33.257,28.85-1.241,9.76-12.451,15.631-14.425,16.629a195.828,195.828,0,0,0-36.436-.151c-12.448,1.112-28.435,2.541-44.639,9.581-24.077,10.461-39.083,29.164-47.5,42.726-2.143,20.074-3.9,24.952-5.2,25.012-1.416.067-3.046-5.456-3.617-8.31a25.032,25.032,0,0,1-.5-5.3,19.963,19.963,0,0,0-8.928,8.014c-2.7,4.739-2.644,9.685-6.7,18.422-.5,1.088-2.077,4.407-3.65,4.269-1.181-.106-1.764-2.125-2.385-1.846-.995.449-.678,4.644-1.269,4.745-.56.1-2.062-3.686-3.141-9.3C319.827,4765.559,317.769,4754.849,322.727,4743.013Z" transform="translate(-319.6 -4543.059)" fill="#ddd8f9"/>
      <g id="Group_35679" data-name="Group 35679" transform="translate(231.265 101.041)">
        <rect id="Rectangle_149" data-name="Rectangle 149" width="94.365" height="124.584" rx="6.428" transform="translate(89.074 148.753) rotate(-160.723)" fill="#e2ad7a"/>
        <rect id="Rectangle_150" data-name="Rectangle 150" width="82.368" height="113.15" transform="translate(83.851 141.51) rotate(-160.723)" fill="#d9924d"/>
        <rect id="Rectangle_151" data-name="Rectangle 151" width="82.368" height="111.399" transform="translate(86.122 140.165) rotate(-160.723)" fill="#f9f9f9"/>
        <path id="Rectangle_152" data-name="Rectangle 152" d="M0,0H50.467a0,0,0,0,1,0,0V9.737a9.637,9.637,0,0,1-9.637,9.637H9.637A9.637,9.637,0,0,1,0,9.737V0A0,0,0,0,1,0,0Z" transform="translate(106.49 37.968) rotate(-160.723)" fill="#5e48e9"/>
        <rect id="Rectangle_153" data-name="Rectangle 153" width="44.976" height="8.611" rx="2.358" transform="translate(104.328 34.646) rotate(-160.723)" fill="#f9f9f9"/>
        <path id="Path_39463" data-name="Path 39463" d="M638.21,4650.239l-2.373,6.781a3.076,3.076,0,0,0,1.975,3.859l12.094,4.229a3.075,3.075,0,0,0,3.949-1.787l2.372-6.782a6.966,6.966,0,0,0-4.472-8.742l-4.6-1.61A6.969,6.969,0,0,0,638.21,4650.239Zm3.373,1.838a4.242,4.242,0,0,1,5.42-2.522l2.774.972a4.239,4.239,0,0,1,2.667,5.349l-1.459,4.171a1.871,1.871,0,0,1-2.391,1.112l-7.291-2.551a1.871,1.871,0,0,1-1.178-2.36Z" transform="translate(-557.183 -4644.214)" fill="#5e48e9"/>
      </g>
      <g id="Group_35681" data-name="Group 35681" transform="translate(134.911 0)">
        <g id="Group_35680" data-name="Group 35680" clip-path="url(#clip-path)">
          <circle id="Ellipse_134" data-name="Ellipse 134" cx="46.887" cy="46.887" r="46.887" transform="translate(0 81.866) rotate(-60.81)" fill="#ddd8f9"/>
          <circle id="Ellipse_135" data-name="Ellipse 135" cx="39.686" cy="39.686" r="39.686" transform="translate(57.959 20.086) rotate(-6.593)" fill="#5e48e9"/>
        </g>
      </g>
      <path id="Path_39464" data-name="Path 39464" d="M542.3,4573.028c1.461.451-3.878,11.12-1.174,26.936,2.579,15.091,10.507,23.3,8.939,24.5-1.682,1.278-13.289-6.271-16.94-18.325C528.131,4589.63,540.4,4572.438,542.3,4573.028Z" transform="translate(-323.844 -4541.72)" fill="#f9f9f9"/>
    </g>
    <g id="Group_35684" data-name="Group 35684" transform="translate(718.067 4752.042)">
      <rect id="Rectangle_154" data-name="Rectangle 154" width="287.182" height="168.421" rx="27.508" fill="#5bbfc1"/>
      <g id="Group_35683" data-name="Group 35683" transform="translate(42.195 50.499)">
        <rect id="Rectangle_155" data-name="Rectangle 155" width="31.36" height="48.608" rx="3.382" transform="translate(0 25.306)" fill="#f8f8f8"/>
        <rect id="Rectangle_156" data-name="Rectangle 156" width="31.36" height="59.703" rx="3.382" transform="translate(43.749 14.211)" fill="#a3e9d0"/>
        <rect id="Rectangle_157" data-name="Rectangle 157" width="31.36" height="38.749" rx="3.382" transform="translate(87.497 35.165)" fill="#f8f8f8"/>
        <rect id="Rectangle_158" data-name="Rectangle 158" width="31.36" height="62.558" rx="3.382" transform="translate(131.246 11.356)" fill="#a3e9d0"/>
        <rect id="Rectangle_159" data-name="Rectangle 159" width="31.36" height="73.914" rx="3.382" transform="translate(174.994)" fill="#f8f8f8"/>
      </g>
      <rect id="Rectangle_160" data-name="Rectangle 160" width="220.986" height="10.657" rx="2.285" transform="translate(34.879 133.907)" fill="#f8f8f8"/>
      <path id="Path_39465" data-name="Path 39465" d="M820.177,4803.189c-12.005,0-20.168-.653-21.071-.73a4.452,4.452,0,1,1,.743-8.872c.6.05,60.669,4.829,99.861-12.5a4.453,4.453,0,0,1,3.6,8.145C876.654,4801.019,842.045,4803.189,820.177,4803.189Z" transform="translate(-727.569 -4757.016)" fill="#f8f8f8"/>
      <path id="Path_39466" data-name="Path 39466" d="M890.445,4780.659l11.3,16.857a3.41,3.41,0,0,0,6-.64l7.011-17.66a3.409,3.409,0,0,0-3.317-4.664l-18.308.8A3.409,3.409,0,0,0,890.445,4780.659Z" transform="translate(-729.465 -4756.894)" fill="#f8f8f8"/>
    </g>
    <g id="Group_35685" data-name="Group 35685" transform="translate(583.388 4689.436)">
      <path id="Path_39467" data-name="Path 39467" d="M589.865,4714.8a30.214,30.214,0,0,0,57.185,19.252,1.216,1.216,0,0,0-.741-1.608l-26.648-8.827a1.117,1.117,0,0,1-.71-1.412l8.962-27.055a1.053,1.053,0,0,0-.7-1.347A30.213,30.213,0,0,0,589.865,4714.8Z" transform="translate(-588.769 -4692.649)" fill="#3f77f2" fill-rule="evenodd"/>
      <path id="Path_39468" data-name="Path 39468" d="M632.724,4697.432l-6.671,20.139a3,3,0,0,0,1.907,3.8l19.948,6.608a3.012,3.012,0,0,0,3.933-2.507,30.247,30.247,0,0,0-14.736-29.682A3.012,3.012,0,0,0,632.724,4697.432Z" transform="translate(-589.511 -4692.705)" fill="#fd59a8" fill-rule="evenodd"/>
    </g>
    <g id="Group_35690" data-name="Group 35690" transform="translate(513.564 4852.832)">
      <rect id="Rectangle_161" data-name="Rectangle 161" width="22.823" height="145.494" transform="translate(191.125 148.28) rotate(-73.091)" fill="#fd59a8"/>
      <circle id="Ellipse_137" data-name="Ellipse 137" cx="96.902" cy="96.902" r="96.902" transform="translate(15.527 15.527)" fill="#fd59a8"/>
      <g id="Group_35687" data-name="Group 35687" transform="translate(0 0)">
        <g id="Group_35686" data-name="Group 35686" clip-path="url(#clip-path-2)">
          <circle id="Ellipse_138" data-name="Ellipse 138" cx="79.499" cy="79.499" r="79.499" transform="translate(0 112.429) rotate(-45)" fill="#ffe9e9"/>
          <path id="Path_39469" data-name="Path 39469" d="M597.265,5070.334q-9.123-96.226-18.247-192.453l29.441-4.774,16.828,194.653Z" transform="translate(-518.749 -4859.652)" fill="#fff" opacity="0.4"/>
          <path id="Path_39470" data-name="Path 39470" d="M556.987,5071.359q-9.124-96.227-18.247-192.454l29.441-4.773,16.828,194.653Z" transform="translate(-517.944 -4859.673)" fill="#fff" opacity="0.4"/>
        </g>
      </g>
      <g id="Group_35689" data-name="Group 35689" transform="translate(253.572 139.97)">
        <rect id="Rectangle_162" data-name="Rectangle 162" width="35.39" height="83.659" rx="8.055" transform="translate(0 33.861) rotate(-73.091)" fill="#fd59a8"/>
        <g id="Group_35688" data-name="Group 35688" transform="translate(0 0)" clip-path="url(#clip-path-3)">
          <rect id="Rectangle_163" data-name="Rectangle 163" width="35.39" height="83.659" rx="8.055" transform="translate(0 33.861) rotate(-73.091)" fill="#fd59a8"/>
          <rect id="Rectangle_164" data-name="Rectangle 164" width="52.252" height="7.303" transform="translate(61.624 61.406) rotate(-73.091)" fill="#fd59a8"/>
          <rect id="Rectangle_165" data-name="Rectangle 165" width="52.252" height="7.303" transform="translate(5.356 43.053) rotate(-73.091)" fill="#fd59a8"/>
        </g>
      </g>
    </g>
  </g>
</svg>
