<svg xmlns="http://www.w3.org/2000/svg" xmlns:xlink="http://www.w3.org/1999/xlink" width="679.191" height="639.455" viewBox="0 0 679.191 639.455">
  <defs>
    <clipPath id="clip-path">
      <circle id="Ellipse_158" data-name="Ellipse 158" cx="47.265" cy="47.265" r="47.265" transform="translate(0 92.55) rotate(-78.251)" fill="none"/>
    </clipPath>
    <clipPath id="clip-path-2">
      <circle id="Ellipse_166" data-name="Ellipse 166" cx="47.265" cy="47.265" r="47.265" transform="matrix(0.979, -0.204, 0.204, 0.979, 0, 19.249)" fill="none"/>
    </clipPath>
  </defs>
  <g id="faq" transform="translate(-12266.108 1662.921)">
    <path id="Path_39485" data-name="Path 39485" d="M12723.438-1623.711v178.66a39.206,39.206,0,0,1-39.207,39.208H12399.1a39.213,39.213,0,0,1-39.215-39.208v-178.66a39.214,39.214,0,0,1,39.215-39.21h285.127A39.207,39.207,0,0,1,12723.438-1623.711Z" transform="translate(65.229 0)" fill="#beb3f8"/>
    <g id="Group_35718" data-name="Group 35718" transform="translate(12492.82 -1560.299)">
      <path id="Path_39486" data-name="Path 39486" d="M12399.818-1519.75v-82.029h57.129v16.756h-36.068v15.126h33.742v16.755h-33.742v33.392Z" transform="translate(-12399.818 1602.827)" fill="#fff"/>
      <path id="Path_39487" data-name="Path 39487" d="M12504.147-1519.75l-7.33-16.988h-36.3l-7.33,16.988h-21.525l38.283-82.029h16.984l38.4,82.029Zm-36.768-33.045h22.574l-11.287-26.294Z" transform="translate(-12377.673 1602.827)" fill="#fff"/>
      <path id="Path_39488" data-name="Path 39488" d="M12561.1-1516.061l9.076,14.777-18.268,8.26-13.029-21.293q-2.449-3.955-8.844-3.956-12.565,0-21.816-5.178a35.3,35.3,0,0,1-14.254-14.66q-5-9.481-5-22.283t5-22.281a34.968,34.968,0,0,1,14.254-14.6q9.249-5.117,21.816-5.119t21.816,5.119a34.634,34.634,0,0,1,14.193,14.6q4.945,9.484,4.945,22.281,0,12.684-5,22.224a34.788,34.788,0,0,1-14.309,14.661A15.487,15.487,0,0,1,12561.1-1516.061Zm-16.521-25.191q5.235-6.572,5.234-19.141t-5.293-19.082q-5.3-6.516-14.484-6.516-9.311,0-14.543,6.458t-5.24,19.139q0,12.684,5.24,19.2t14.543,6.516Q12539.339-1534.678,12544.577-1541.252Z" transform="translate(-12337.818 1602.397)" fill="#fff"/>
    </g>
    <path id="Path_39489" data-name="Path 39489" d="M12723.438-1623.711v15.578h-363.549v-15.578a39.214,39.214,0,0,1,39.215-39.21h285.127A39.207,39.207,0,0,1,12723.438-1623.711Z" transform="translate(65.229 0)" fill="#5e3fee"/>
    <g id="Group_35723" data-name="Group 35723" transform="translate(12266.108 -1597.503)">
      <path id="Path_39490" data-name="Path 39490" d="M12360.541-1564.168c2.014.712,13.529,4.78,20.2,14.105,4.207,5.875,5.516,12.479,5.139,30.23-.738,34.615-6.742,57.208.139,76.424,1.547,4.321,3.549,8.612,3.549,8.612,4.957,9.986,11.615,16.441,29.6,47.784,12.363,21.528,18.539,32.29,20.193,37.936,10.895,37.07-.064,86.455-1.738,93.744-2.01,8.756-5.271,20.552.951,27.909,5.6,6.615,13.713,3.527,24.225,11.5,7.365,5.592,14.846,15.823,12.219,20.95-2.236,4.349-10.281,2.191-40.25.549-24.049-1.326-30.766-.589-35.547-6.186-3.912-4.577-3.754-10.138-2.48-24.57,3.463-39.267,6.768-48.8,5.914-67.588-.479-10.716-1.033-20.74-6.041-32.667-3.42-8.134-9.527-15.972-21.613-31.313-12.625-16.038-18.953-24.067-21.332-23.105-5.525,2.241,11.027,29.374,3.822,63.969-3.92,18.826-12.6,34.876-25.951,58.408-6.277,11.065-12.066,19.947-16.248,26.081,39.748,11.375,45.459,17.184,45.07,20.165-1.018,7.808-45.316,7.235-54.562,7.116-22.535-.292-33.887-.57-37.955-7.116-5.9-9.5,3.814-26,20.678-54.642,13.922-23.648,14.783-20.732,18.693-30.222,6.369-15.461,2.916-33.273-3.99-68.894-2.074-10.7-2.705-11.586-6.836-31.817-3.768-18.466-6.35-32.948-7-36.743-8.379-48.467-14.564-84.128,3.67-109.424,5.213-7.23,15.725-18.222,37.77-25.118,2.635-.013,6.318.061,10.7.458C12347.018-1567.132,12353.922-1566.506,12360.541-1564.168Z" transform="translate(-12266.108 1663.465)" fill="#ded8fb"/>
      <path id="Path_39491" data-name="Path 39491" d="M12505.281-1487.925c-6.582,2.264-12.811,1.913-18.973,1.646-2.76-.119-7.289-.3-13.051-.459-15.391,6.34-39.982,13.451-68.064,8.814-19.8-3.271-36.543-11.59-44.746-15.671a195.4,195.4,0,0,1-32.7-20.528c-12.48-7.964-18.3-21.172-14.979-31.7,2.568-8.124,9.756-12.023,10.6-12.467,8.389-4.386,19.26-2.938,27.734,3.81a188.981,188.981,0,0,0,20.932,19.353c8.217,6.523,22.094,17.659,39.328,23.906,24.881,9.015,48.824,5.712,64.381,1.607,15.475-13.217,20.141-15.572,21.135-14.714.873.751-.9,4.224-3.105,8.593-.625,1.238-1.172,2.241-1.541,2.9a30.835,30.835,0,0,1,7.117-1.187c3.51-.168,5.664-.273,7.117,1.187,1.84,1.843,1.365,4.981,1.186,5.929a6.232,6.232,0,0,1,2.371,2.374c1.314,2.4.822,5.636-1.184,8.3.5.7,1.811,2.735,1.184,4.746C12509.453-1489.641,12507.525-1488.7,12505.281-1487.925Z" transform="translate(-12234.299 1668.54)" fill="#ded8fb"/>
      <g id="Group_35720" data-name="Group 35720" transform="translate(1.278 114.607)">
        <g id="Group_35719" data-name="Group 35719" transform="translate(0 1.543)">
          <rect id="Rectangle_200" data-name="Rectangle 200" width="44.004" height="118.81" rx="12.976" transform="translate(55.117 118.27) rotate(174.536)" fill="#beb3f8"/>
          <ellipse id="Ellipse_154" data-name="Ellipse 154" cx="12.101" cy="6.601" rx="12.101" ry="6.601" transform="translate(10.879 9.318) rotate(-5.464)" fill="#9d8df5"/>
        </g>
        <rect id="Rectangle_201" data-name="Rectangle 201" width="44.004" height="118.81" rx="12.976" transform="translate(96.381 118.27) rotate(174.536)" fill="#beb3f8"/>
        <ellipse id="Ellipse_155" data-name="Ellipse 155" cx="13.201" cy="6.601" rx="13.201" ry="6.601" transform="matrix(1, -0.031, 0.031, 1, 51.497, 9.293)" fill="#9d8df5"/>
      </g>
      <g id="Group_35722" data-name="Group 35722" transform="translate(28.866 0)">
        <g id="Group_35721" data-name="Group 35721" transform="translate(0)" clip-path="url(#clip-path)">
          <circle id="Ellipse_156" data-name="Ellipse 156" cx="47.265" cy="47.265" r="47.265" transform="translate(0 92.55) rotate(-78.251)" fill="#ded8fb"/>
          <circle id="Ellipse_157" data-name="Ellipse 157" cx="40.006" cy="40.006" r="40.006" transform="translate(37.074 15.623) rotate(-24.033)" fill="#5e3fee"/>
        </g>
      </g>
      <path id="Path_39492" data-name="Path 39492" d="M12354.542-1572.393c-1.469.477-3.268-11.415-14.68-22.873-10.893-10.934-22.2-13.1-21.6-14.989.641-2.03,14.592-2.553,24.6,5.256C12356.573-1594.306,12356.456-1573.015,12354.542-1572.393Z" transform="translate(-12229.848 1633.24)" fill="#fafafa"/>
    </g>
    <path id="Path_39493" data-name="Path 39493" d="M12523.244-1402.2c6.586,2.263,12.813,1.912,18.977,1.648,2.762-.12,7.291-.3,13.049-.461,15.389,6.34,39.98,13.453,68.066,8.814,19.8-3.271,36.543-11.589,44.744-15.671a195.328,195.328,0,0,0,32.7-20.528c12.48-7.964,18.3-21.172,14.977-31.7-2.566-8.125-9.754-12.023-10.6-12.469-8.389-4.386-19.258-2.938-27.734,3.81a189.111,189.111,0,0,1-20.93,19.353c-8.219,6.523-22.1,17.659-39.33,23.906-24.879,9.015-48.824,5.712-64.381,1.607-15.473-13.217-20.139-15.572-21.135-14.712-.871.75.9,4.222,3.107,8.592.625,1.239,1.172,2.241,1.539,2.9a30.916,30.916,0,0,0-7.117-1.187c-3.508-.168-5.662-.271-7.117,1.187-1.84,1.843-1.363,4.983-1.187,5.931a6.249,6.249,0,0,0-2.369,2.372c-1.312,2.4-.822,5.636,1.188,8.3-.5.7-1.814,2.735-1.187,4.746C12519.074-1403.916,12521-1402.971,12523.244-1402.2Z" transform="translate(175.044 130.663)" fill="#beb3f8"/>
    <g id="Group_35726" data-name="Group 35726" transform="translate(12316.894 -1376.047)">
      <g id="Group_35725" data-name="Group 35725">
        <g id="Group_35724" data-name="Group 35724">
          <path id="Path_39494" data-name="Path 39494" d="M12755.061-1456.739v193.308c0,20.34-19.365,36.989-43.033,36.989h-372.943c-23.668,0-43.021-16.648-43.021-36.989v-193.308c0-20.349,19.354-36.99,43.021-36.99h372.943C12735.7-1493.729,12755.061-1477.087,12755.061-1456.739Z" transform="translate(-12296.063 1493.729)" fill="#56c2c5"/>
          <path id="Path_39495" data-name="Path 39495" d="M12755.061-1468.075v186.8c0,20.34-19.365,36.989-43.033,36.989h-372.943c-23.668,0-43.021-16.649-43.021-36.989v-186.8Z" transform="translate(-12296.063 1511.573)" fill="#a7edd4"/>
          <rect id="Rectangle_202" data-name="Rectangle 202" width="458.998" height="8.409" transform="translate(0 43.169)" fill="#56c2c5"/>
        </g>
        <circle id="Ellipse_159" data-name="Ellipse 159" cx="11.864" cy="11.864" r="11.864" transform="translate(38.847 13.805)" fill="#fff"/>
        <circle id="Ellipse_160" data-name="Ellipse 160" cx="11.864" cy="11.864" r="11.864" transform="translate(73.992 13.805)" fill="#fff"/>
        <circle id="Ellipse_161" data-name="Ellipse 161" cx="11.864" cy="11.864" r="11.864" transform="translate(109.135 13.805)" fill="#fff"/>
      </g>
    </g>
    <g id="Group_35731" data-name="Group 35731" transform="translate(12668.839 -1494.519)">
      <path id="Path_39496" data-name="Path 39496" d="M12658.168-1503.43c-2.016.712-13.529,4.78-20.2,14.105-4.209,5.875-5.518,12.479-5.141,30.232.74,34.613,6.744,57.206-.137,76.422-1.547,4.32-3.551,8.612-3.551,8.612-4.957,9.987-11.611,16.444-29.6,47.784-12.363,21.53-18.537,32.29-20.193,37.936-10.895,37.07.064,86.456,1.738,93.744,2.012,8.756,5.273,20.553-.951,27.909-5.6,6.615-13.713,3.527-24.225,11.5-7.361,5.592-14.846,15.823-12.219,20.95,2.236,4.349,10.281,2.191,40.25.549,24.051-1.326,30.764-.588,35.547-6.186,3.914-4.576,3.756-10.136,2.48-24.57-3.461-39.267-6.77-48.8-5.914-67.588.479-10.716,1.033-20.74,6.041-32.667,3.418-8.134,9.529-15.97,21.613-31.313,12.627-16.038,18.955-24.065,21.332-23.105,5.529,2.243-11.027,29.374-3.822,63.97,3.92,18.826,12.6,34.876,25.951,58.41,6.277,11.064,12.066,19.945,16.252,26.081-39.752,11.375-45.459,17.182-45.074,20.163,1.02,7.808,45.316,7.237,54.564,7.116,22.533-.292,33.885-.57,37.955-7.116,5.9-9.495-3.816-26-20.678-54.641-13.924-23.649-14.783-20.731-18.7-30.221-6.367-15.463-2.912-33.273,3.992-68.9,2.074-10.7,2.705-11.584,6.836-31.817,3.768-18.466,6.348-32.947,7-36.743,8.381-48.467,14.564-84.128-3.668-109.424-5.211-7.23-15.727-18.222-37.77-25.118-2.635-.013-6.318.061-10.7.458C12671.691-1506.392,12664.785-1505.768,12658.168-1503.43Z" transform="translate(-12476.139 1602.727)" fill="#ded8fb"/>
      <path id="Path_39497" data-name="Path 39497" d="M12509.106-1427.187c6.586,2.266,12.811,1.913,18.975,1.648,2.76-.12,7.291-.3,13.051-.461,15.389,6.34,39.98,13.453,68.064,8.814,19.8-3.271,36.541-11.589,44.746-15.67a195.561,195.561,0,0,0,32.7-20.528c12.48-7.964,18.3-21.172,14.98-31.7-2.568-8.125-9.754-12.023-10.607-12.469-8.385-4.386-19.258-2.938-27.732,3.81a189.1,189.1,0,0,1-20.93,19.355c-8.219,6.521-22.1,17.659-39.328,23.9-24.881,9.015-48.826,5.713-64.381,1.608-15.475-13.217-20.141-15.572-21.137-14.712-.871.75.9,4.222,3.105,8.592.625,1.239,1.172,2.241,1.541,2.9a30.994,30.994,0,0,0-7.115-1.187c-3.51-.168-5.664-.271-7.119,1.187-1.84,1.844-1.365,4.983-1.186,5.931a6.28,6.28,0,0,0-2.373,2.372c-1.312,2.4-.82,5.636,1.186,8.3-.5.7-1.811,2.735-1.186,4.744C12504.935-1428.9,12506.862-1427.957,12509.106-1427.187Z" transform="translate(-12503.63 1607.803)" fill="#ded8fb"/>
      <g id="Group_35728" data-name="Group 35728" transform="translate(178.801 114.608)">
        <g id="Group_35727" data-name="Group 35727" transform="translate(41.263 1.543)">
          <rect id="Rectangle_203" data-name="Rectangle 203" width="44.004" height="118.81" rx="12.976" transform="translate(11.313 0) rotate(5.464)" fill="#beb3f8"/>
          <ellipse id="Ellipse_162" data-name="Ellipse 162" cx="6.601" cy="12.101" rx="6.601" ry="12.101" transform="translate(18.89 20.155) rotate(-84.536)" fill="#9d8df5"/>
        </g>
        <rect id="Rectangle_204" data-name="Rectangle 204" width="44.004" height="118.81" rx="12.976" transform="translate(11.313 0) rotate(5.464)" fill="#beb3f8"/>
        <ellipse id="Ellipse_163" data-name="Ellipse 163" cx="6.601" cy="13.201" rx="6.601" ry="13.201" transform="matrix(0.031, -1, 1, 0.031, 18.084, 21.664)" fill="#9d8df5"/>
      </g>
      <g id="Group_35730" data-name="Group 35730" transform="translate(135.795 0)">
        <g id="Group_35729" data-name="Group 35729" transform="translate(0)" clip-path="url(#clip-path-2)">
          <circle id="Ellipse_164" data-name="Ellipse 164" cx="47.265" cy="47.265" r="47.265" transform="matrix(0.979, -0.204, 0.204, 0.979, 0, 19.249)" fill="#ded8fb"/>
          <circle id="Ellipse_165" data-name="Ellipse 165" cx="40.006" cy="40.006" r="40.006" transform="translate(-30.939 56.114) rotate(-65.967)" fill="#5e3fee"/>
        </g>
      </g>
      <path id="Path_39498" data-name="Path 39498" d="M12593.518-1511.655c1.467.476,3.268-11.415,14.682-22.873,10.891-10.935,22.191-13.1,21.594-14.989-.645-2.03-14.592-2.553-24.6,5.256C12591.486-1533.566,12591.6-1512.277,12593.518-1511.655Z" transform="translate(-12441.751 1572.502)" fill="#fafafa"/>
    </g>
    <circle id="Ellipse_167" data-name="Ellipse 167" cx="11.712" cy="11.712" r="11.712" transform="translate(12464.607 -1647.341)" fill="#beb3f8"/>
    <circle id="Ellipse_168" data-name="Ellipse 168" cx="11.712" cy="11.712" r="11.712" transform="translate(12502.345 -1647.341)" fill="#beb3f8"/>
    <circle id="Ellipse_169" data-name="Ellipse 169" cx="11.712" cy="11.712" r="11.712" transform="translate(12540.083 -1647.341)" fill="#beb3f8"/>
    <g id="Group_35735" data-name="Group 35735" transform="translate(12808.433 -1625.232)">
      <path id="Path_39499" data-name="Path 39499" d="M12714.057-1619.556v37.789a21.136,21.136,0,0,1-21.135,21.135h-26.639q-6.741,10.763-13.475,21.544a3.53,3.53,0,0,1-5.867.175q-7.752-10.865-15.527-21.718H12607.1a21.136,21.136,0,0,1-21.135-21.137v-37.787a21.136,21.136,0,0,1,21.135-21.137h85.826A21.136,21.136,0,0,1,12714.057-1619.556Z" transform="translate(-12585.961 1640.693)" fill="#fd55a5"/>
      <g id="Group_35734" data-name="Group 35734" transform="translate(18.943 22.59)">
        <g id="Group_35733" data-name="Group 35733" transform="translate(61.202 0.486)">
          <g id="Group_35732" data-name="Group 35732">
            <circle id="Ellipse_170" data-name="Ellipse 170" cx="14.505" cy="14.505" r="14.505" fill="#5e3fee"/>
            <path id="Path_39500" data-name="Path 39500" d="M12646.273-1607.619h-2.955v-11.13a10.23,10.23,0,0,1-3.818,2.238v-2.681a8.542,8.542,0,0,0,2.514-1.435,5.459,5.459,0,0,0,1.861-2.465h2.4Z" transform="translate(-12628.864 1629.86)" fill="#fff"/>
          </g>
        </g>
        <path id="Path_39501" data-name="Path 39501" d="M12653.318-1612.146a15.182,15.182,0,0,1-4.461,10.765,15.188,15.188,0,0,1-10.766,4.461h-23.047l-7.617,9.007v-9.831a15.218,15.218,0,0,1-10.295-14.4,15.176,15.176,0,0,1,4.463-10.765,15.173,15.173,0,0,1,10.764-4.459h25.732A15.227,15.227,0,0,1,12653.318-1612.146Z" transform="translate(-12597.133 1627.37)" fill="#fff"/>
      </g>
    </g>
    <rect id="Rectangle_205" data-name="Rectangle 205" width="162.446" height="15.724" rx="4.637" transform="translate(12560.08 -1282.684)" fill="#56c2c5"/>
    <rect id="Rectangle_206" data-name="Rectangle 206" width="162.446" height="15.724" rx="4.637" transform="translate(12560.08 -1248.796)" fill="#56c2c5"/>
    <rect id="Rectangle_207" data-name="Rectangle 207" width="162.446" height="15.724" rx="4.637" transform="translate(12560.08 -1214.907)" fill="#56c2c5"/>
    <rect id="Rectangle_208" data-name="Rectangle 208" width="162.446" height="15.724" rx="4.637" transform="translate(12560.08 -1181.018)" fill="#56c2c5"/>
    <rect id="Rectangle_209" data-name="Rectangle 209" width="169.108" height="143.245" rx="13.097" transform="translate(12363.037 -1293.639)" fill="#fff"/>
    <g id="Group_35739" data-name="Group 35739" transform="translate(12387.443 -1273.222)">
      <g id="Group_35738" data-name="Group 35738">
        <path id="Path_39502" data-name="Path 39502" d="M12373.793-1433.085v10.455a49.764,49.764,0,0,1,48.594,48.591h10.451A60.229,60.229,0,0,0,12373.793-1433.085Z" transform="translate(-12312.54 1433.085)" fill="#5e3fee"/>
        <path id="Path_39503" data-name="Path 39503" d="M12361.911-1414.84l-7.383-7.382a59.92,59.92,0,0,0-16.859,40.627h10.455A49.521,49.521,0,0,1,12361.911-1414.84Z" transform="translate(-12337.669 1440.641)" fill="#beb3f8"/>
        <path id="Path_39504" data-name="Path 39504" d="M12337.669-1396.957a59.762,59.762,0,0,0,10.479,32.8h13.344a49.493,49.493,0,0,1-13.367-32.8Z" transform="translate(-12337.669 1458.214)" fill="#ded8fb"/>
        <path id="Path_39505" data-name="Path 39505" d="M12348.533-1416.228l7.385,7.383a49.5,49.5,0,0,1,33.242-13.785v-10.455A59.913,59.913,0,0,0,12348.533-1416.228Z" transform="translate(-12330.113 1433.085)" fill="#fd55a5"/>
        <path id="Path_39506" data-name="Path 39506" d="M12407.938-1396.957a49.485,49.485,0,0,1-13.369,32.8h13.346a59.76,59.76,0,0,0,10.477-32.8Z" transform="translate(-12298.095 1458.214)" fill="#3b73f7"/>
        <rect id="Rectangle_210" data-name="Rectangle 210" width="3.064" height="8.357" transform="translate(59 18.765)" fill="#5e3fee"/>
        <rect id="Rectangle_211" data-name="Rectangle 211" width="3.064" height="8.357" transform="translate(59 94.053)" fill="#5e3fee"/>
        <rect id="Rectangle_212" data-name="Rectangle 212" width="3.064" height="8.357" transform="translate(102.354 59.056) rotate(90)" fill="#5e3fee"/>
        <rect id="Rectangle_213" data-name="Rectangle 213" width="3.064" height="8.357" transform="translate(27.068 59.056) rotate(90)" fill="#5e3fee"/>
        <g id="Group_35736" data-name="Group 35736" transform="translate(29.876 29.932)">
          <rect id="Rectangle_214" data-name="Rectangle 214" width="3.064" height="8.357" transform="translate(59.146) rotate(45)" fill="#5e3fee"/>
          <rect id="Rectangle_215" data-name="Rectangle 215" width="3.064" height="8.357" transform="translate(5.91 53.237) rotate(45)" fill="#5e3fee"/>
          <rect id="Rectangle_216" data-name="Rectangle 216" width="3.064" height="8.357" transform="translate(61.313 59.146) rotate(135)" fill="#5e3fee"/>
          <rect id="Rectangle_217" data-name="Rectangle 217" width="3.064" height="8.357" transform="translate(8.076 5.91) rotate(135)" fill="#5e3fee"/>
        </g>
        <rect id="Rectangle_218" data-name="Rectangle 218" width="3.064" height="8.357" transform="translate(59 18.765)" fill="#5e3fee"/>
        <rect id="Rectangle_219" data-name="Rectangle 219" width="3.064" height="8.357" transform="translate(59 94.053)" fill="#5e3fee"/>
        <rect id="Rectangle_220" data-name="Rectangle 220" width="3.064" height="8.357" transform="translate(102.354 59.056) rotate(90)" fill="#5e3fee"/>
        <rect id="Rectangle_221" data-name="Rectangle 221" width="3.064" height="8.357" transform="translate(27.068 59.056) rotate(90)" fill="#5e3fee"/>
        <g id="Group_35737" data-name="Group 35737" transform="translate(21.348 21.404)">
          <rect id="Rectangle_222" data-name="Rectangle 222" width="3.064" height="8.357" transform="translate(77.188 21.658) rotate(67.34)" fill="#5e3fee"/>
          <rect id="Rectangle_223" data-name="Rectangle 223" width="3.064" height="8.357" transform="translate(7.712 50.664) rotate(67.34)" fill="#5e3fee"/>
          <rect id="Rectangle_224" data-name="Rectangle 224" width="3.064" height="8.357" transform="translate(56.711 77.188) rotate(157.34)" fill="#5e3fee"/>
          <rect id="Rectangle_225" data-name="Rectangle 225" width="3.064" height="8.357" transform="translate(27.704 7.712) rotate(157.34)" fill="#5e3fee"/>
        </g>
        <rect id="Rectangle_226" data-name="Rectangle 226" width="3.064" height="8.357" transform="translate(75.013 21.322) rotate(22.34)" fill="#5e3fee"/>
        <rect id="Rectangle_227" data-name="Rectangle 227" width="3.064" height="8.357" transform="translate(46.396 90.959) rotate(22.34)" fill="#5e3fee"/>
        <rect id="Rectangle_228" data-name="Rectangle 228" width="3.064" height="8.357" transform="translate(99.798 75.067) rotate(112.34)" fill="#5e3fee"/>
        <rect id="Rectangle_229" data-name="Rectangle 229" width="3.064" height="8.357" transform="translate(30.161 46.45) rotate(112.34)" fill="#5e3fee"/>
        <circle id="Ellipse_171" data-name="Ellipse 171" cx="8.854" cy="8.854" r="8.854" transform="translate(53.231 50.157)" fill="#5e3fee"/>
        <path id="Path_39507" data-name="Path 39507" d="M12372.9-1395.891c.205-1.034,20.688-13.034,20.688-13.034l-13.863,22.344Z" transform="translate(-12313.165 1449.89)" fill="#5e3fee"/>
      </g>
    </g>
  </g>
</svg>
