<svg width="242" height="44" viewBox="0 0 242 44" fill="none" xmlns="http://www.w3.org/2000/svg">
<path d="M99.0059 30.8293C99.0059 24.9049 99.0059 19.0321 99.0059 13.1076C99.177 13.1076 99.3309 13.1076 99.4849 13.1076C101.641 13.1076 103.788 13.0647 105.944 13.1248C107.509 13.1592 109.066 13.357 110.487 14.1137C111.804 14.8188 112.488 15.9366 112.505 17.4327C112.514 18.0432 112.488 18.6709 112.352 19.2556C112.035 20.5884 111.128 21.3967 109.751 21.8008C110.153 21.9384 110.487 22.0158 110.803 22.1533C112.155 22.7724 112.916 23.8129 113.044 25.3176C113.156 26.6418 112.985 27.8886 112.052 28.9118C111.308 29.7373 110.333 30.193 109.28 30.3994C108.228 30.6057 107.15 30.7691 106.081 30.7949C103.899 30.8551 101.718 30.8121 99.5363 30.8121C99.3652 30.8293 99.2112 30.8293 99.0059 30.8293ZM102.821 27.6392C103.001 27.6392 103.138 27.6392 103.283 27.6392C104.31 27.6392 105.336 27.6908 106.355 27.6134C106.945 27.5704 107.561 27.3985 108.1 27.1405C109.357 26.53 109.434 24.518 108.279 23.7441C107.698 23.3571 107.039 23.254 106.372 23.2368C105.191 23.2024 104.019 23.2282 102.813 23.2282C102.821 24.6727 102.821 26.1259 102.821 27.6392ZM102.796 20.5884C103.566 20.5884 104.276 20.5884 104.986 20.5884C105.157 20.5884 105.328 20.5798 105.49 20.554C106.089 20.4508 106.714 20.425 107.278 20.2187C108.288 19.8575 108.519 19.204 108.502 18.2496C108.485 17.235 108.04 16.7276 107.082 16.5127C105.679 16.1945 104.259 16.3235 102.83 16.2977C102.813 16.4009 102.796 16.4697 102.796 16.5385C102.796 17.8713 102.796 19.204 102.796 20.5884Z" fill="black"/>
<path d="M89.9973 24.4748C91.2891 26.5901 92.5552 28.6709 93.8727 30.8292C93.539 30.8292 93.2738 30.8292 93.0086 30.8292C91.9393 30.8292 90.8699 30.8206 89.8005 30.8378C89.5353 30.8378 89.407 30.7432 89.2787 30.511C88.3633 28.8085 87.4394 27.1146 86.5069 25.4207C86.4556 25.3261 86.3358 25.1885 86.2503 25.1885C85.3862 25.1713 84.5136 25.1799 83.6068 25.1799C83.6068 27.0802 83.6068 28.9203 83.6068 30.8034C82.3064 30.8034 81.0489 30.8034 79.7656 30.8034C79.7656 24.9305 79.7656 19.0577 79.7656 13.1419C79.9111 13.1333 80.065 13.1247 80.2105 13.1247C82.2637 13.1247 84.3168 13.0817 86.37 13.1333C87.8329 13.1677 89.2872 13.3655 90.6389 14.0104C92.136 14.724 93.0086 15.902 93.2995 17.5358C93.5391 18.8943 93.5048 20.2357 93.0001 21.5341C92.521 22.7551 91.657 23.6236 90.5106 24.2255C90.3481 24.3029 90.1941 24.3716 89.9973 24.4748ZM83.6153 16.3922C83.6153 18.3526 83.6153 20.2615 83.6153 22.2306C84.103 22.2306 84.5735 22.2392 85.0355 22.2306C85.7626 22.2134 86.4898 22.222 87.2084 22.1274C87.9099 22.0328 88.5943 21.7921 89.0306 21.1558C89.6209 20.3045 89.5952 19.3587 89.4156 18.4042C89.2445 17.51 88.6799 16.9511 87.8244 16.6759C86.4556 16.2374 85.044 16.4266 83.6153 16.3922Z" fill="black"/>
<path d="M65.7786 31.13C63.7254 31.1644 61.869 30.6055 60.2778 29.2985C59.1143 28.3441 58.3444 27.0887 57.9338 25.6441C57.2152 23.0989 57.1809 20.5366 58.0878 18.0258C59.063 15.3172 61.0135 13.6835 63.8196 13.1074C65.4621 12.7721 67.1046 12.8151 68.7044 13.331C70.98 14.0704 72.614 15.558 73.461 17.8194C74.4619 20.4936 74.4961 23.2365 73.5722 25.9279C72.5456 28.9116 70.3641 30.5625 67.2672 31.001C66.771 31.0698 66.2748 31.087 65.7786 31.13ZM61.2274 21.9897C61.2702 22.4712 61.2873 22.9614 61.3557 23.4343C61.6295 25.5409 62.8443 27.3466 65.214 27.6132C67.2415 27.8367 69.1065 26.9167 69.8508 24.8273C70.3897 23.3139 70.4753 21.7576 70.1416 20.1926C69.7567 18.4127 68.8499 17.0455 66.9849 16.5382C65.3338 16.0911 63.2806 16.5812 62.2283 18.2321C61.4841 19.3844 61.236 20.6483 61.2274 21.9897Z" fill="black"/>
<path d="M175.914 31.1302C173.947 31.1388 172.142 30.6315 170.585 29.4019C169.515 28.5678 168.762 27.4758 168.309 26.2118C167.368 23.5548 167.291 20.8463 168.198 18.1893C169.224 15.1712 171.423 13.4773 174.554 13.0302C176.65 12.7292 178.678 12.9786 180.525 14.0964C182.63 15.369 183.751 17.3295 184.17 19.7199C184.546 21.8695 184.469 23.9934 183.708 26.057C182.638 28.9633 180.5 30.5541 177.488 31.0098C176.967 31.0786 176.436 31.0872 175.914 31.1302ZM175.931 27.6392C177.839 27.6392 179.234 26.7535 179.952 24.9736C180.705 23.0991 180.679 21.1902 180.038 19.29C179.473 17.6132 177.925 16.4266 176.265 16.3836C174.169 16.332 172.621 17.3037 171.936 19.1008C171.278 20.8205 171.252 22.5918 171.731 24.3459C172.304 26.4784 173.844 27.6392 175.931 27.6392Z" fill="black"/>
<path d="M205.6 19.2382C204.274 19.4704 203.051 19.6853 201.776 19.9089C201.665 19.6079 201.571 19.2984 201.434 19.006C200.621 17.2519 199.261 16.3749 197.336 16.4781C195.591 16.5641 194.376 17.4841 193.735 19.092C192.931 21.1041 192.913 23.142 193.803 25.1282C194.59 26.8651 196.07 27.6734 198.012 27.553C199.603 27.4584 200.989 26.332 201.571 24.6639C201.793 24.019 201.793 24.0104 202.452 24.1222C203.487 24.3028 204.514 24.4919 205.583 24.6811C205.438 25.6269 205.113 26.4954 204.642 27.3123C203.196 29.8144 200.947 30.9581 198.149 31.13C196.267 31.2418 194.479 30.8807 192.862 29.8488C191.134 28.7482 190.073 27.1575 189.577 25.1884C188.952 22.7206 188.978 20.2614 189.936 17.871C191.031 15.1539 193.085 13.5717 195.925 13.0472C198.072 12.6517 200.142 12.9269 202.05 14.0447C203.496 14.8959 204.497 16.1427 205.104 17.7077C205.275 18.1892 205.412 18.6879 205.6 19.2382Z" fill="black"/>
<path d="M208.475 30.8294C210.006 26.96 211.512 23.1767 213.009 19.3847C213.762 17.4758 214.514 15.5669 215.25 13.6494C215.396 13.2711 215.558 13.0647 216.029 13.0905C217.012 13.1421 217.996 13.1163 218.98 13.0991C219.288 13.0905 219.442 13.1679 219.57 13.4861C221.281 17.8455 223.018 22.1964 224.746 26.5559C225.294 27.9489 225.833 29.3418 226.397 30.7778C226.26 30.795 226.158 30.8294 226.055 30.8294C224.917 30.8294 223.771 30.8208 222.633 30.838C222.393 30.838 222.282 30.7692 222.205 30.537C221.923 29.7116 221.598 28.9033 221.324 28.0864C221.239 27.8285 221.119 27.7339 220.845 27.7339C218.578 27.7425 216.311 27.7425 214.044 27.7339C213.796 27.7339 213.676 27.8027 213.59 28.052C213.308 28.8775 213.009 29.6944 212.692 30.5026C212.641 30.6316 212.513 30.8122 212.427 30.8122C211.127 30.838 209.826 30.8294 208.475 30.8294ZM220.143 24.862C219.245 22.3942 218.373 19.9694 217.491 17.5446C217.457 17.5446 217.423 17.5446 217.38 17.5446C216.499 19.9694 215.618 22.4028 214.728 24.862C216.559 24.862 218.321 24.862 220.143 24.862Z" fill="black"/>
<path d="M135.356 30.8205C134.038 30.8205 132.806 30.8205 131.506 30.8205C131.506 26.074 131.506 21.3448 131.506 16.5726C130.052 16.5726 128.666 16.5726 127.246 16.5726C127.246 15.4118 127.246 14.3026 127.246 13.1504C131.352 13.1504 135.458 13.1504 139.599 13.1504C139.599 14.2682 139.599 15.3774 139.599 16.5468C138.204 16.5468 136.801 16.5468 135.356 16.5468C135.356 21.3362 135.356 26.0568 135.356 30.8205Z" fill="black"/>
<path d="M157.12 27.3897C159.318 27.3897 161.457 27.3897 163.63 27.3897C163.63 28.5419 163.63 29.6597 163.63 30.8034C160.174 30.8034 156.735 30.8034 153.253 30.8034C153.253 24.9219 153.253 19.0405 153.253 13.1333C154.536 13.1333 155.811 13.1333 157.12 13.1333C157.12 17.8883 157.12 22.6089 157.12 27.3897Z" fill="black"/>
<path d="M230.794 30.7948C230.794 24.8962 230.794 19.0233 230.794 13.1333C232.078 13.1333 233.344 13.1333 234.661 13.1333C234.661 17.8711 234.661 22.6003 234.661 27.3811C236.851 27.3811 238.981 27.3811 241.137 27.3811C241.137 28.5419 241.137 29.6512 241.137 30.7948C237.707 30.7948 234.268 30.7948 230.794 30.7948Z" fill="black"/>
<path d="M118.528 13.1245C119.803 13.1245 121.035 13.1245 122.31 13.1245C122.31 19.0145 122.31 24.896 122.31 30.8032C121.061 30.8032 119.812 30.8032 118.528 30.8032C118.528 24.9303 118.528 19.0489 118.528 13.1245Z" fill="black"/>
<path d="M14.4064 27.6305C17.3835 31.7578 20.3349 35.8422 23.3291 39.9867C23.6457 39.5653 23.9451 39.187 24.236 38.7915C26.6484 35.4552 29.0695 32.1104 31.482 28.7655C32.0209 28.0175 32.5513 27.2694 33.0817 26.5127C33.6292 25.7388 34.5446 25.5927 35.3231 26.1602C35.8963 26.5815 35.9819 27.6047 35.5028 28.2582C34.1511 30.1155 32.808 31.9728 31.4563 33.8301C29.2748 36.8396 27.1018 39.8405 24.9289 42.85C24.7407 43.1165 24.5525 43.3917 24.3215 43.6153C23.7312 44.2172 22.6362 44.0882 22.14 43.4003C20.6514 41.328 19.1543 39.2644 17.6572 37.2007C16.4424 35.5154 15.2276 33.8215 14.0043 32.1276C12.9263 30.6314 11.8655 29.1267 10.7705 27.6477C10.6679 27.5015 10.4198 27.407 10.2316 27.3898C7.68218 27.0974 5.17559 26.6331 2.91709 25.3089C1.39432 24.4147 0.28218 23.1937 0.0426427 21.3536C-0.137011 20.0122 0.265071 18.817 0.983684 17.7078C2.17282 15.8763 3.86669 14.5951 5.67178 13.4515C6.12519 13.1591 6.60427 12.9184 7.06623 12.6346C7.186 12.5572 7.31432 12.4196 7.34854 12.2907C7.89606 10.1668 8.85421 8.23214 10.1802 6.50383C12.1051 4.00164 14.5432 2.18734 17.4947 1.05233C19.7788 0.175278 22.1571 -0.125673 24.5696 0.0462989C27.8376 0.27846 30.8061 1.40487 33.4154 3.43414C34.519 4.29399 35.4942 5.28283 36.3839 6.36625C36.5379 6.55542 36.8459 6.69299 37.1025 6.72739C39.3782 7.01114 41.611 7.46687 43.6727 8.55029C44.9389 9.22097 46.0253 10.1066 46.6071 11.4566C47.2059 12.841 47.0947 14.2167 46.4616 15.5581C45.7601 17.0371 44.6394 18.1635 43.3819 19.1609C40.4988 21.4309 37.2223 22.9271 33.8003 24.1567C30.789 25.2401 27.7007 26.0742 24.5439 26.5987C22.4736 26.9426 20.3948 27.2264 18.3074 27.4499C17.0413 27.5961 15.758 27.5789 14.4064 27.6305ZM11.087 10.5795C11.1213 10.6053 11.1469 10.6397 11.1811 10.6655C11.3522 10.6139 11.5233 10.5624 11.6859 10.5022C12.7809 10.1152 13.8759 9.71969 14.9795 9.34135C15.8692 9.0404 16.6905 9.43594 16.9472 10.2442C17.2124 11.0955 16.759 11.8779 15.8607 12.1789C14.7571 12.5486 13.645 12.9098 12.567 13.3397C9.70115 14.4833 6.92935 15.8247 4.65374 17.9743C4.11478 18.4816 3.63571 19.0921 3.25929 19.7284C2.66045 20.7517 2.9342 21.6631 3.87525 22.3682C4.97028 23.1937 6.2364 23.5892 7.53675 23.9245C7.82762 24.0019 8.11849 24.0535 8.44357 24.1223C8.42646 23.9933 8.42646 23.9503 8.40935 23.9159C7.7934 22.6347 7.33999 21.3106 7.05768 19.9176C6.89513 19.1093 7.109 18.3527 7.63941 18.0517C8.63178 17.4842 9.72681 18.0087 9.93213 19.1523C10.2487 20.9752 10.9416 22.6433 11.9425 24.1911C12.1479 24.5178 12.3874 24.6296 12.7296 24.6296C15.0651 24.664 17.4006 24.6554 19.719 24.3373C21.7978 24.0535 23.8681 23.7354 25.9213 23.314C29.4801 22.5832 32.9192 21.4825 36.2385 19.9864C36.5208 19.8574 36.6491 19.6854 36.7005 19.3845C37.0341 17.6132 37.0598 15.8419 36.709 14.0706C36.0075 10.5022 34.1853 7.63884 31.2681 5.53219C28.0001 3.17618 24.3301 2.4281 20.3862 3.29656C17.084 4.01884 14.4149 5.79874 12.3959 8.51589C11.9083 9.17798 11.5233 9.89166 11.087 10.5795ZM39.8658 18.0173C41.2517 17.1403 42.475 16.2374 43.3647 14.982C44.3314 13.6234 44.4256 12.583 42.8857 11.534C41.5853 10.6483 40.0882 10.27 38.5141 9.94326C39.6177 12.54 40.0625 15.1884 39.8658 18.0173Z" fill="#13B1B7"/>
<path d="M21.199 10.7601C20.4548 12.325 18.9748 12.6518 17.9311 12.196C18.8721 10.3044 18.6925 9.53908 16.9644 8.19771C17.5204 7.32065 19.1715 6.89932 20.4975 7.93115C23.3805 5.66113 26.4518 5.53215 29.7026 7.09709C28.2226 9.39291 25.391 11.5082 21.199 10.7601ZM24.3729 7.26906C23.7056 7.27766 23.1923 7.80217 23.1923 8.47286C23.1923 9.05756 23.7912 9.65086 24.3729 9.65946C25.006 9.66806 25.5792 9.10056 25.5792 8.46426C25.5792 7.76778 25.0744 7.26906 24.3729 7.26906Z" fill="#13B1B7"/>
</svg>
