<svg xmlns="http://www.w3.org/2000/svg" xmlns:xlink="http://www.w3.org/1999/xlink" width="672.164" height="695.367" viewBox="0 0 672.164 695.367">
  <defs>
    <clipPath id="clip-path">
      <circle id="Ellipse_179" data-name="Ellipse 179" cx="39.176" cy="39.176" r="39.176" transform="translate(0 15.955) rotate(-11.749)" fill="none"/>
    </clipPath>
    <clipPath id="clip-path-2">
      <circle id="Ellipse_189" data-name="Ellipse 189" cx="39.662" cy="39.662" r="39.662" transform="translate(0 77.661) rotate(-78.251)" fill="none"/>
    </clipPath>
  </defs>
  <g id="whatsare" transform="translate(-3179.477 -2558.858)">
    <g id="Group_35743" data-name="Group 35743" transform="translate(3305.181 2637.228)">
      <g id="Group_35742" data-name="Group 35742">
        <g id="Group_35741" data-name="Group 35741">
          <path id="Path_39508" data-name="Path 39508" d="M3354.5,2753.922l18.141,3.258a.161.161,0,0,0,.175-.09l2.811-5.938a3.716,3.716,0,0,1,6.3-.682l4.017,5.2a.163.163,0,0,0,.191.05l17.022-7.067a.163.163,0,0,0,.1-.171l-.846-6.515a3.705,3.705,0,0,1,.153-1.65,3.756,3.756,0,0,1,1.912-2.174,3.674,3.674,0,0,1,2.865-.155l6.19,2.2a.162.162,0,0,0,.188-.061l10.5-15.148a.135.135,0,0,0,.021-.041.162.162,0,0,0-.03-.156l-4.234-5.024a3.715,3.715,0,0,1,2-6.012l6.4-1.495a.162.162,0,0,0,.125-.152l.643-18.421a.161.161,0,0,0-.114-.16l-6.277-1.938a3.673,3.673,0,0,1-2.2-1.836,3.761,3.761,0,0,1-.232-2.886,3.689,3.689,0,0,1,.864-1.414l4.574-4.718a.164.164,0,0,0,.023-.2l-9.418-15.844a.164.164,0,0,0-.183-.073l-6.328,1.764a3.716,3.716,0,0,1-4.641-4.313l1.3-6.441a.161.161,0,0,0-.086-.177l-16.489-8.237a.161.161,0,0,0-.193.037l-4.37,4.906a3.716,3.716,0,0,1-6.236-1.12l-2.39-6.12a.162.162,0,0,0-.168-.1l-18.325,1.985a.164.164,0,0,0-.143.136l-1.024,6.49a3.729,3.729,0,0,1-2.536,2.96,3.674,3.674,0,0,1-3.314-.531l-5.32-3.856a.163.163,0,0,0-.2,0l-14.343,11.577a.164.164,0,0,0-.047.192l2.647,6.013a3.639,3.639,0,0,1,.133,2.655,3.688,3.688,0,0,1-3.742,2.552l-6.559-.369a.162.162,0,0,0-.163.111l-5.807,17.494a.162.162,0,0,0,.064.186l5.478,3.627a3.688,3.688,0,0,1,1.473,4.283,3.644,3.644,0,0,1-1.694,2.05l-5.718,3.236a.163.163,0,0,0-.077.181l4.573,17.856a.162.162,0,0,0,.155.121l6.57.09a3.675,3.675,0,0,1,2.973,1.556,3.736,3.736,0,0,1,.263,3.89l-3.06,5.813a.162.162,0,0,0,.033.194l13.5,12.549a.162.162,0,0,0,.2.019l5.575-3.476a3.715,3.715,0,0,1,5.668,2.831l.569,6.546A.162.162,0,0,0,3354.5,2753.922Zm10.672-27.692a26.575,26.575,0,1,1,33.594-16.85A26.574,26.574,0,0,1,3365.168,2726.23Z" transform="translate(-3317.342 -2644.81)" fill="#d9d4f5"/>
        </g>
      </g>
    </g>
    <g id="Group_35746" data-name="Group 35746" transform="translate(3241.451 2708.292)">
      <g id="Group_35745" data-name="Group 35745">
        <path id="Path_39509" data-name="Path 39509" d="M3609.128,3196.04H3480.5l16.633-79.376H3592.5Z" transform="translate(-3268.005 -2757.496)" fill="#8a8a8a"/>
        <g id="Group_35744" data-name="Group 35744">
          <rect id="Rectangle_230" data-name="Rectangle 230" width="553.623" height="382.43" rx="34.035" fill="#a8a8a8"/>
          <rect id="Rectangle_231" data-name="Rectangle 231" width="501.497" height="301.525" rx="22.411" transform="translate(25.074 30.459)" fill="#8a8a8a"/>
          <rect id="Rectangle_232" data-name="Rectangle 232" width="483.027" height="283.676" rx="21.334" transform="translate(35.6 39.193)" fill="#5bbdbf"/>
        </g>
        <path id="Path_39510" data-name="Path 39510" d="M3639.987,3209.068H3430.722c-2.2,0-7.6-5.4-7.6-12v-1.589a12.031,12.031,0,0,1,12-12h209.265a12.031,12.031,0,0,1,12,12v1.589C3656.383,3203.67,3650.985,3209.068,3639.987,3209.068Z" transform="translate(-3262.944 -2763.39)" fill="#a8a8a8"/>
        <rect id="Rectangle_233" data-name="Rectangle 233" width="71.976" height="7.876" rx="3.172" transform="translate(240.824 11.852)" fill="#8a8a8a"/>
      </g>
    </g>
    <circle id="Ellipse_172" data-name="Ellipse 172" cx="14.415" cy="14.415" r="14.415" transform="translate(3514.281 3045.933)" fill="#8a8a8a"/>
    <path id="Path_39511" data-name="Path 39511" d="M3418.11,3011.708c-5.525,1.9-10.751,1.6-15.921,1.382-2.317-.1-6.118-.252-10.951-.386-12.914,5.319-33.55,11.288-57.116,7.4-16.618-2.745-30.662-9.725-37.546-13.149a164.1,164.1,0,0,1-27.441-17.226c-10.472-6.682-15.358-17.767-12.568-26.6a19.052,19.052,0,0,1,8.9-10.462c7.037-3.682,16.158-2.467,23.271,3.2a158.681,158.681,0,0,0,17.564,16.24c6.9,5.472,18.54,14.818,33,20.059,20.876,7.566,40.97,4.794,54.024,1.35,12.985-11.091,16.9-13.068,17.736-12.346.73.629-.754,3.543-2.607,7.209-.525,1.04-.984,1.881-1.293,2.434a25.932,25.932,0,0,1,5.972-1c2.944-.141,4.75-.229,5.971,1,1.543,1.547,1.145,4.181,1,4.977a5.248,5.248,0,0,1,1.99,1.99c1.1,2.01.688,4.729-.995,6.967.419.59,1.52,2.3.995,3.981C3421.609,3010.268,3419.993,3011.061,3418.11,3011.708Z" transform="translate(-6.732 -34.552)" fill="#bbb2f3"/>
    <path id="Path_39512" data-name="Path 39512" d="M3700.245,2823.95v162.458a35.652,35.652,0,0,1-35.653,35.653H3405.324a35.657,35.657,0,0,1-35.658-35.653V2823.95a35.657,35.657,0,0,1,35.658-35.653h259.268A35.652,35.652,0,0,1,3700.245,2823.95Z" transform="translate(-16.777 -20.239)" fill="#f7f7f7"/>
    <path id="Path_39513" data-name="Path 39513" d="M3700.245,2823.95v14.166H3369.666V2823.95a35.657,35.657,0,0,1,35.658-35.653h259.268A35.652,35.652,0,0,1,3700.245,2823.95Z" transform="translate(-16.777 -20.239)" fill="#5e48e9"/>
    <circle id="Ellipse_173" data-name="Ellipse 173" cx="10.649" cy="10.649" r="10.649" transform="translate(3388.797 2782.224)" fill="#bdb4f5"/>
    <circle id="Ellipse_174" data-name="Ellipse 174" cx="10.649" cy="10.649" r="10.649" transform="translate(3423.112 2782.224)" fill="#bdb4f5"/>
    <circle id="Ellipse_175" data-name="Ellipse 175" cx="10.649" cy="10.649" r="10.649" transform="translate(3457.427 2782.224)" fill="#bdb4f5"/>
    <rect id="Rectangle_234" data-name="Rectangle 234" width="110.416" height="11.849" rx="5.925" transform="translate(3535.77 2850.006)" fill="#dbd6f7"/>
    <rect id="Rectangle_235" data-name="Rectangle 235" width="110.416" height="11.849" rx="5.925" transform="translate(3535.77 2871.741)" fill="#dbd6f7"/>
    <rect id="Rectangle_236" data-name="Rectangle 236" width="110.416" height="11.849" rx="5.925" transform="translate(3535.77 2893.477)" fill="#dbd6f7"/>
    <rect id="Rectangle_237" data-name="Rectangle 237" width="110.416" height="11.849" rx="5.925" transform="translate(3535.77 2915.212)" fill="#dbd6f7"/>
    <rect id="Rectangle_238" data-name="Rectangle 238" width="110.416" height="11.849" rx="5.925" transform="translate(3535.77 2936.948)" fill="#dbd6f7"/>
    <rect id="Rectangle_239" data-name="Rectangle 239" width="110.416" height="11.849" rx="5.925" transform="translate(3535.77 2958.683)" fill="#dbd6f7"/>
    <g id="Group_35752" data-name="Group 35752" transform="translate(3595.299 2852.058)">
      <path id="Path_39514" data-name="Path 39514" d="M3684.443,3076.649a37.182,37.182,0,0,0,15.265-.236,44,44,0,0,0,10.282-3.591c13.416,2.657,34.649,4.486,56.857-4.2,15.063-5.889,26.241-14.921,33.4-20.7a162.073,162.073,0,0,0,22.782-22.476c8.67-16.073,4.369-32.093-4.382-36.524-7.334-3.714-16.647,1.293-18.262,2.19a163.552,163.552,0,0,1-16.963,25.28c-6.6,8.091-15.077,18.484-27.539,26.4-18.516,11.757-38.485,13.379-51.81,12.847-14.892-7.921-19.09-8.99-19.742-8.116-.709.949,2.348,4.664,4.055,6.4a20.912,20.912,0,0,0,3.428,2.83,16.68,16.68,0,0,1-9.727,2.423c-4.542-.354-7.94-2.707-15.881-4-.988-.161-4.022-.628-4.664.525-.48.867.645,2.216.159,2.514-.776.478-3.53-1.706-3.876-1.345-.329.343,1.584,3.154,4.963,6.531C3667.488,3068.095,3673.933,3074.535,3684.443,3076.649Z" transform="translate(-3637.491 -2889.875)" fill="#bbb2f3"/>
      <path id="Path_39515" data-name="Path 39515" d="M3635.537,3099.888c-.336,17.969,7.883,31.854,23.485,41.087,4.181,2.474,8.433.334,8.958-4.464q1.454-13.307,2.859-26.62l.264-2.472,19.178,2.054-.254,2.374q-1.425,13.31-2.847,26.621c-.521,4.94,3.174,7.92,7.918,6.329,17.1-5.734,28.038-17.508,31.521-35.049,3.655-18.4-2.52-33.848-17.233-45.652a3.386,3.386,0,0,1-1.489-3.462q4.33-39.7,8.512-79.425a3.171,3.171,0,0,1,2.06-2.92c29.763-14.235,35.955-52.511,12.126-75.4a52.906,52.906,0,0,0-9.576-6.866c-3.676-2.2-7.871.172-8.349,4.489-.989,8.943-1.927,17.891-2.885,26.837l-.265,2.475-19.178-2.054.256-2.393q1.427-13.31,2.847-26.621c.51-4.836-3.142-7.877-7.734-6.353-17.2,5.7-28.206,17.507-31.709,35.136-3.638,18.309,2.476,33.717,17.094,45.5a3.743,3.743,0,0,1,1.606,3.832q-4.308,39.487-8.455,78.99a3.55,3.55,0,0,1-2.3,3.223C3645.158,3067.482,3635.886,3081.222,3635.537,3099.888Zm48.917-127.817-.037,0c.13-3.182-1.911-4.71-4.2-6.209a34.886,34.886,0,0,1-5.174-54.59c1.747-1.689,3.791-3.067,5.7-4.59l.023.016c-1.9,1.518-3.941,2.894-5.683,4.578a34.887,34.887,0,0,0,5.173,54.591C3682.544,2967.362,3684.585,2968.889,3684.454,2972.071Zm35.843-37.2c-.6,5.614-2.608,7.235-8.22,6.635l-.037,0c5.611.6,7.617-1.021,8.219-6.635.833-7.774,1.666-15.548,2.56-23.905l.035.034C3721.959,2919.345,3721.129,2927.11,3720.3,2934.874Zm-52.648,160.789h0q14.382,1.506,28.76,3.082c4.141.456,6.05,2.867,5.617,7.032-.765,7.346-1.567,14.688-2.353,22.033l-.305,2.854-.079.049.312-2.912c.786-7.343,1.587-14.686,2.352-22.031.434-4.166-1.476-6.577-5.616-7.033Q3682,3097.159,3667.649,3095.663Zm1.8-27.657c2.512-.964,4.688-2.056,5.29-5.24l5.236.561-5.164-.553c-.6,3.183-2.778,4.276-5.289,5.24-22.842,8.762-30.218,36.918-14.529,55.316.737.865,1.553,1.673,2.677,2.871l-.011.058c-1.158-1.237-1.987-2.055-2.74-2.938C3639.228,3104.924,3646.6,3076.768,3669.446,3068.005Z" transform="translate(-3635.527 -2881.445)" fill="#fa5da7"/>
      <g id="Group_35751" data-name="Group 35751" transform="translate(27.198 0)">
        <path id="Path_39516" data-name="Path 39516" d="M3821.6,2970.374c-1.67.589-11.212,3.961-16.745,11.69-3.487,4.87-4.573,10.343-4.259,25.057.612,28.69,5.59,47.416-.114,63.342-1.283,3.582-2.945,7.139-2.945,7.139-4.108,8.277-9.624,13.628-24.531,39.606-10.246,17.844-15.365,26.763-16.737,31.443-9.03,30.725.053,71.658,1.44,77.7,1.667,7.256,4.372,17.034-.788,23.131-4.641,5.482-11.365,2.924-20.077,9.533-6.1,4.635-12.306,13.115-10.127,17.365,1.852,3.6,8.521,1.816,33.361.455,19.934-1.1,25.5-.487,29.464-5.127,3.241-3.792,3.113-8.4,2.055-20.364-2.869-32.547-5.61-40.447-4.9-56.021.4-8.882.857-17.19,5.008-27.074,2.832-6.742,7.9-13.238,17.912-25.954,10.466-13.294,15.713-19.947,17.681-19.151,4.582,1.859-9.14,24.345-3.168,53.02,3.25,15.6,10.446,28.908,21.51,48.413,5.2,9.171,10,16.532,13.47,21.617-32.948,9.429-37.68,14.243-37.358,16.713.842,6.472,37.559,6,45.223,5.9,18.678-.241,28.086-.473,31.46-5.9,4.893-7.869-3.162-21.552-17.138-45.289-11.54-19.6-12.254-17.183-15.494-25.049-5.279-12.817-2.417-27.579,3.307-57.1,1.719-8.866,2.244-9.6,5.666-26.372,3.124-15.3,5.261-27.307,5.805-30.454,6.944-40.171,12.07-69.729-3.042-90.695-4.319-5.993-13.034-15.1-31.3-20.82-2.184-.011-5.238.051-8.868.379C3832.812,2967.917,3827.089,2968.435,3821.6,2970.374Z" transform="translate(-3670.73 -2888.071)" fill="#dbd6f7"/>
        <path id="Path_39517" data-name="Path 39517" d="M3669.9,3038.766c5.458,1.876,10.619,1.585,15.727,1.365,2.288-.1,6.042-.249,10.817-.382,12.755,5.255,33.138,11.15,56.416,7.305,16.415-2.71,30.287-9.606,37.087-12.988a162.1,162.1,0,0,0,27.1-17.015c10.343-6.6,15.17-17.549,12.414-26.272a18.82,18.82,0,0,0-8.79-10.334c-6.952-3.636-15.96-2.435-22.986,3.157a156.774,156.774,0,0,1-17.348,16.041c-6.812,5.405-18.314,14.637-32.6,19.813-20.621,7.473-40.468,4.735-53.362,1.333-12.826-10.955-16.693-12.907-17.519-12.2-.722.622.744,3.5,2.575,7.121.519,1.028.972,1.858,1.276,2.4a25.662,25.662,0,0,0-5.9-.983c-2.909-.139-4.693-.226-5.9.983-1.524,1.529-1.131,4.131-.983,4.917a5.18,5.18,0,0,0-1.966,1.966c-1.088,1.987-.68,4.672.983,6.882-.415.582-1.5,2.267-.983,3.931C3666.438,3037.344,3668.035,3038.127,3669.9,3038.766Z" transform="translate(-3665.357 -2889.063)" fill="#dbd6f7"/>
        <g id="Group_35748" data-name="Group 35748" transform="translate(148.199 94.992)">
          <g id="Group_35747" data-name="Group 35747" transform="translate(34.2 1.279)">
            <rect id="Rectangle_240" data-name="Rectangle 240" width="36.472" height="98.476" rx="18.236" transform="translate(9.377 0) rotate(5.464)" fill="#bbb2f3"/>
            <ellipse id="Ellipse_176" data-name="Ellipse 176" cx="5.471" cy="10.03" rx="5.471" ry="10.03" transform="translate(15.657 16.705) rotate(-84.536)" fill="#9a8def"/>
          </g>
          <rect id="Rectangle_241" data-name="Rectangle 241" width="36.472" height="98.476" rx="18.236" transform="translate(9.377 0) rotate(5.464)" fill="#bbb2f3"/>
          <path id="Path_39518" data-name="Path 39518" d="M3866.391,2998.487c-.095,3.02-5.068,5.315-11.108,5.126s-10.86-2.789-10.765-5.809,5.067-5.316,11.106-5.127,10.86,2.789,10.767,5.81" transform="translate(-3829.359 -2985.316)" fill="#9a8def"/>
        </g>
        <g id="Group_35750" data-name="Group 35750" transform="translate(112.553)">
          <g id="Group_35749" data-name="Group 35749" transform="translate(0)" clip-path="url(#clip-path)">
            <circle id="Ellipse_177" data-name="Ellipse 177" cx="39.176" cy="39.176" r="39.176" transform="translate(0 15.955) rotate(-11.749)" fill="#dbd6f7"/>
            <circle id="Ellipse_178" data-name="Ellipse 178" cx="33.159" cy="33.159" r="33.159" transform="translate(-25.643 46.51) rotate(-65.967)" fill="#5e48e7"/>
          </g>
        </g>
        <path id="Path_39519" data-name="Path 39519" d="M3829.42,2897.408c-1.278-.007.306,9.836-5.81,21.765-5.836,11.384-14.211,15.945-13.26,17.288,1.021,1.439,12.164-1.671,18.092-10.365C3836.56,2914.191,3831.089,2897.416,3829.42,2897.408Z" transform="translate(-3678.14 -2881.921)" fill="#f7f7f7"/>
      </g>
    </g>
    <path id="Path_39520" data-name="Path 39520" d="M3485.072,2568.464a55.577,55.577,0,1,1-24.332,45.967,55.311,55.311,0,0,1,24.332-45.967" transform="translate(-24.81)" fill="#f960a8"/>
    <path id="Path_39521" data-name="Path 39521" d="M3547.255,2610.741c.013,3.56.056,7.119.034,10.679a20.6,20.6,0,0,1-8.377,17.09c-6.034,4.591-12.215,8.989-18.338,13.464a2.336,2.336,0,0,1-2.9.007c-6.139-4.416-12.331-8.762-18.389-13.286a20.567,20.567,0,0,1-8.549-17.069c-.077-7.584-.068-15.17-.1-22.756-.007-1.761.524-2.461,2.214-2.891a53.821,53.821,0,0,0,24.231-13.411,2.409,2.409,0,0,1,3.561-.009,53.789,53.789,0,0,0,24.395,13.239,2.41,2.41,0,0,1,2.165,2.738Q3547.234,2604.638,3547.255,2610.741Z" transform="translate(-27.448 -2.022)" fill="#fff"/>
    <g id="Group_35753" data-name="Group 35753" transform="translate(3486.455 2593.557)">
      <path id="Path_39522" data-name="Path 39522" d="M3518.35,2622.374l-2.183-22.211a2.959,2.959,0,0,1,2.962-3.249l4.415.024a2.959,2.959,0,0,1,2.927,3.255l-2.232,22.187a2.96,2.96,0,0,1-2.944,2.663h0A2.959,2.959,0,0,1,3518.35,2622.374Zm1.162,6.673h3.62a2.959,2.959,0,0,1,2.959,2.959v3.5a2.959,2.959,0,0,1-2.959,2.959h-3.62a2.959,2.959,0,0,1-2.959-2.959v-3.5A2.959,2.959,0,0,1,3519.512,2629.046Z" transform="translate(-3516.153 -2596.914)" fill="#5f4fe4"/>
    </g>
    <circle id="Ellipse_180" data-name="Ellipse 180" cx="45.915" cy="45.915" r="45.915" transform="translate(3389.118 3080.426)" fill="#5e48e9"/>
    <g id="Group_35754" data-name="Group 35754" transform="translate(3408.782 3097.368)">
      <path id="Path_39523" data-name="Path 39523" d="M3438.755,3153.106a18.954,18.954,0,1,0,26.482,4.151A18.956,18.956,0,0,0,3438.755,3153.106Zm19.2,26.335a13.635,13.635,0,1,1,2.987-19.051A13.631,13.631,0,0,1,3457.952,3179.441Z" transform="translate(-3430.966 -3149.466)" fill="#fff"/>
      <rect id="Rectangle_242" data-name="Rectangle 242" width="7.635" height="12.262" transform="matrix(0.808, -0.589, 0.589, 0.808, 25.45, 34.348)" fill="#fff"/>
      <rect id="Rectangle_243" data-name="Rectangle 243" width="16.426" height="20.128" rx="4.206" transform="matrix(0.808, -0.589, 0.589, 0.808, 26.94, 43.855)" fill="#fff"/>
    </g>
    <g id="Group_35755" data-name="Group 35755" transform="translate(3546.383 3177.978)">
      <path id="Path_39524" data-name="Path 39524" d="M3615.624,3289.137a7.31,7.31,0,0,1-.429.748q-7.756,10.463-15.521,20.918a8.733,8.733,0,0,1-11.782,1.785q-1.194-.871-2.368-1.768a8.6,8.6,0,0,1-1.782-12.381q7.678-10.375,15.4-20.721a.863.863,0,0,0,.04-1.2,20.005,20.005,0,0,1,.239-23.355q2.73-3.829,5.607-7.555a20.2,20.2,0,0,1,21.076-7.042,4.864,4.864,0,0,1,1.8.852,2.732,2.732,0,0,1,.358,3.851c-.51.749-1.074,1.462-1.615,2.191-2.966,4-5.95,7.978-8.895,11.99a7.15,7.15,0,0,0,1.21,9.96,7.26,7.26,0,0,0,10.3-1.246q5.186-6.995,10.381-13.985c1.552-2.089,3.856-1.974,5.229.257a20.077,20.077,0,0,1-.957,22.971c-1.707,2.316-3.395,4.646-5.151,6.925a19.772,19.772,0,0,1-14.391,7.916A21.9,21.9,0,0,1,3615.624,3289.137Z" transform="translate(-3581.879 -3237.874)" fill="#dbd6f7"/>
    </g>
    <g id="Group_35760" data-name="Group 35760" transform="translate(3601.276 2609.882)">
      <path id="Path_39525" data-name="Path 39525" d="M3831.044,2634.25v136.513a19.433,19.433,0,0,1-19.433,19.433h-150.1a19.433,19.433,0,0,1-19.432-19.433v-136.5a19.442,19.442,0,0,1,19.442-19.441h150.087A19.432,19.432,0,0,1,3831.044,2634.25Z" transform="translate(-3642.082 -2614.818)" fill="#fa5da7"/>
      <rect id="Rectangle_244" data-name="Rectangle 244" width="168.39" height="156.286" rx="13.91" transform="translate(10.289 9.549)" fill="#fff"/>
      <g id="Group_35759" data-name="Group 35759" transform="translate(35.167 47.715)">
        <g id="Group_35758" data-name="Group 35758">
          <path id="Path_39526" data-name="Path 39526" d="M3746.9,2667.149v10.31a49.072,49.072,0,0,1,47.919,47.919h10.31A59.4,59.4,0,0,0,3746.9,2667.149Z" transform="translate(-3686.495 -2667.149)" fill="#f880ba"/>
          <path id="Path_39527" data-name="Path 39527" d="M3704.556,2694.352l-7.281-7.281a59.1,59.1,0,0,0-16.624,40.065h10.31A48.84,48.84,0,0,1,3704.556,2694.352Z" transform="translate(-3680.651 -2668.906)" fill="#b8adf2"/>
          <path id="Path_39528" data-name="Path 39528" d="M3680.651,2733.4a58.936,58.936,0,0,0,10.333,32.343h13.16a48.794,48.794,0,0,1-13.184-32.343Z" transform="translate(-3680.651 -2672.993)" fill="#dbd6f7"/>
          <path id="Path_39529" data-name="Path 39529" d="M3700.572,2683.773l7.281,7.281a48.822,48.822,0,0,1,32.784-13.6v-10.31A59.091,59.091,0,0,0,3700.572,2683.773Z" transform="translate(-3682.408 -2667.149)" fill="#5e48e5"/>
          <path id="Path_39530" data-name="Path 39530" d="M3798.179,2733.4A48.8,48.8,0,0,1,3785,2765.746h13.16a58.927,58.927,0,0,0,10.333-32.343Z" transform="translate(-3689.855 -2672.993)" fill="#fa5da7"/>
          <rect id="Rectangle_245" data-name="Rectangle 245" width="3.021" height="8.241" transform="translate(58.185 18.506)" fill="#7b7b7c"/>
          <rect id="Rectangle_246" data-name="Rectangle 246" width="3.021" height="8.241" transform="translate(58.185 92.753)" fill="#7b7b7c"/>
          <rect id="Rectangle_247" data-name="Rectangle 247" width="3.021" height="8.241" transform="translate(100.94 58.239) rotate(90)" fill="#7b7b7c"/>
          <rect id="Rectangle_248" data-name="Rectangle 248" width="3.021" height="8.241" transform="translate(26.693 58.24) rotate(90)" fill="#7b7b7c"/>
          <g id="Group_35756" data-name="Group 35756" transform="translate(29.463 29.518)">
            <rect id="Rectangle_249" data-name="Rectangle 249" width="3.021" height="8.241" transform="translate(58.328) rotate(45)" fill="#7b7b7c"/>
            <rect id="Rectangle_250" data-name="Rectangle 250" width="3.021" height="8.241" transform="translate(5.828 52.501) rotate(45)" fill="#7b7b7c"/>
            <rect id="Rectangle_251" data-name="Rectangle 251" width="3.021" height="8.241" transform="translate(60.465 58.328) rotate(135)" fill="#7b7b7c"/>
            <rect id="Rectangle_252" data-name="Rectangle 252" width="3.021" height="8.241" transform="translate(7.964 5.828) rotate(135)" fill="#7b7b7c"/>
          </g>
          <rect id="Rectangle_253" data-name="Rectangle 253" width="3.021" height="8.241" transform="translate(58.185 18.506)" fill="#7b7b7c"/>
          <rect id="Rectangle_254" data-name="Rectangle 254" width="3.021" height="8.241" transform="translate(58.185 92.753)" fill="#7b7b7c"/>
          <rect id="Rectangle_255" data-name="Rectangle 255" width="3.021" height="8.241" transform="translate(100.94 58.239) rotate(90)" fill="#7b7b7c"/>
          <rect id="Rectangle_256" data-name="Rectangle 256" width="3.021" height="8.241" transform="translate(26.693 58.24) rotate(90)" fill="#7b7b7c"/>
          <g id="Group_35757" data-name="Group 35757" transform="translate(21.053 21.108)">
            <rect id="Rectangle_257" data-name="Rectangle 257" width="3.021" height="8.241" transform="translate(76.121 21.359) rotate(67.34)" fill="#7b7b7c"/>
            <rect id="Rectangle_258" data-name="Rectangle 258" width="3.021" height="8.241" transform="translate(7.605 49.963) rotate(67.34)" fill="#7b7b7c"/>
            <rect id="Rectangle_259" data-name="Rectangle 259" width="3.021" height="8.241" transform="translate(55.926 76.121) rotate(157.34)" fill="#7b7b7c"/>
            <rect id="Rectangle_260" data-name="Rectangle 260" width="3.021" height="8.241" transform="translate(27.322 7.605) rotate(157.34)" fill="#7b7b7c"/>
          </g>
          <rect id="Rectangle_261" data-name="Rectangle 261" width="3.021" height="8.241" transform="translate(73.975 21.027) rotate(22.34)" fill="#7b7b7c"/>
          <rect id="Rectangle_262" data-name="Rectangle 262" width="3.021" height="8.241" transform="translate(45.754 89.702) rotate(22.34)" fill="#7b7b7c"/>
          <rect id="Rectangle_263" data-name="Rectangle 263" width="3.021" height="8.241" transform="translate(98.418 74.03) rotate(112.34)" fill="#7b7b7c"/>
          <rect id="Rectangle_264" data-name="Rectangle 264" width="3.021" height="8.241" transform="translate(29.744 45.809) rotate(112.34)" fill="#7b7b7c"/>
          <circle id="Ellipse_181" data-name="Ellipse 181" cx="8.731" cy="8.731" r="8.731" transform="translate(52.495 49.464)" fill="#7b7b7c"/>
          <path id="Path_39531" data-name="Path 39531" d="M3745.26,2724.309c.2-1.02,20.4-12.854,20.4-12.854l-13.669,22.035Z" transform="translate(-3686.35 -2671.057)" fill="#7b7b7c"/>
        </g>
      </g>
      <path id="Path_39532" data-name="Path 39532" d="M3831.044,2632.884v16.49H3642.082v-16.48a18.075,18.075,0,0,1,18.075-18.075h152.821A18.066,18.066,0,0,1,3831.044,2632.884Z" transform="translate(-3642.082 -2614.818)" fill="#fa5da7"/>
      <circle id="Ellipse_182" data-name="Ellipse 182" cx="4.947" cy="4.947" r="4.947" transform="translate(24.038 12.494)" fill="#fff"/>
      <circle id="Ellipse_183" data-name="Ellipse 183" cx="4.947" cy="4.947" r="4.947" transform="translate(41.009 12.494)" fill="#fff"/>
      <circle id="Ellipse_184" data-name="Ellipse 184" cx="4.947" cy="4.947" r="4.947" transform="translate(57.98 12.494)" fill="#fff"/>
    </g>
    <rect id="Rectangle_265" data-name="Rectangle 265" width="141.13" height="123.778" rx="20.609" transform="translate(3376.238 2840.934)" fill="#5e48e9"/>
    <g id="Group_35761" data-name="Group 35761" transform="translate(3399.581 2860.805)">
      <path id="Path_39533" data-name="Path 39533" d="M3467.324,2890.016c18.03.3,33.02,6.3,45.468,18.445a6.9,6.9,0,0,1-2.78,11.749,6.707,6.707,0,0,1-6.92-1.852,49.5,49.5,0,0,0-9.677-7.512,48.95,48.95,0,0,0-29.081-6.8,49.47,49.47,0,0,0-31.559,14.251,6.936,6.936,0,0,1-9.893.2,7.026,7.026,0,0,1,.3-10.12,63.078,63.078,0,0,1,37.5-17.868C3463.109,2890.227,3465.562,2890.144,3467.324,2890.016Z" transform="translate(-3420.875 -2890.016)" fill="#f7f7f7"/>
      <path id="Path_39534" data-name="Path 39534" d="M3468.641,2932.912a22.177,22.177,0,0,0-15.132,6.549,7.251,7.251,0,0,1-9.016,1.209,6.978,6.978,0,0,1-1-10.763,36.068,36.068,0,0,1,20.128-10.313c12.337-1.927,23.07,1.467,32.179,9.99a6.763,6.763,0,0,1,2.1,6.864,6.909,6.909,0,0,1-11.152,3.63c-1.19-.988-2.307-2.074-3.563-2.967C3479.264,2934.322,3474.645,2932.919,3468.641,2932.912Z" transform="translate(-3422.686 -2892.579)" fill="#f7f7f7"/>
      <path id="Path_39535" data-name="Path 39535" d="M3460.72,2958.636a10.77,10.77,0,0,1,10.771-10.655,10.9,10.9,0,0,1,10.8,11.169,10.79,10.79,0,0,1-21.573-.514Z" transform="translate(-3424.389 -2895.129)" fill="#f7f7f7"/>
    </g>
    <g id="Group_35766" data-name="Group 35766" transform="translate(3224.016 2815.044)">
      <path id="Path_39536" data-name="Path 39536" d="M3307.565,2930.894c1.691.6,11.352,4.011,16.953,11.836,3.53,4.93,4.63,10.472,4.312,25.367-.62,29.045-5.659,48,.116,64.128,1.3,3.625,2.982,7.226,2.982,7.226,4.158,8.38,9.743,13.8,24.834,40.1,10.373,18.065,15.556,27.095,16.945,31.833,9.142,31.107-.053,72.547-1.459,78.663-1.687,7.346-4.426,17.246.8,23.418,4.7,5.55,11.507,2.96,20.327,9.653,6.18,4.692,12.459,13.277,10.253,17.58-1.875,3.649-8.626,1.838-33.773.46-20.182-1.112-25.815-.493-29.829-5.191-3.282-3.84-3.152-8.505-2.082-20.617,2.905-32.951,5.68-40.948,4.965-56.715-.4-8.993-.869-17.4-5.072-27.411-2.867-6.826-7.994-13.4-18.135-26.276-10.6-13.459-15.907-20.194-17.9-19.389-4.638,1.882,9.253,24.648,3.208,53.679-3.29,15.8-10.575,29.266-21.777,49.013-5.267,9.284-10.125,16.737-13.637,21.885,33.357,9.546,38.147,14.42,37.822,16.92-.852,6.553-38.026,6.073-45.785,5.972-18.909-.244-28.434-.479-31.85-5.972-4.953-7.967,3.2-21.818,17.351-45.85,11.683-19.844,12.407-17.4,15.687-25.36,5.345-12.976,2.447-27.921-3.348-57.812-1.74-8.977-2.271-9.72-5.736-26.7-3.162-15.495-5.326-27.646-5.877-30.832-7.03-40.67-12.22-70.594,3.079-91.82,4.374-6.067,13.2-15.291,31.693-21.078,2.212-.011,5.3.051,8.979.384C3296.217,2928.407,3302.01,2928.932,3307.565,2930.894Z" transform="translate(-3228.324 -2847.571)" fill="#ddd8f9"/>
      <path id="Path_39537" data-name="Path 39537" d="M3462.01,3000.136c-5.525,1.9-10.75,1.6-15.922,1.381-2.317-.1-6.118-.252-10.951-.386-12.914,5.32-33.55,11.288-57.115,7.4-16.618-2.745-30.663-9.725-37.547-13.15a164,164,0,0,1-27.44-17.226c-10.472-6.682-15.359-17.766-12.568-26.6a19.057,19.057,0,0,1,8.9-10.463c7.037-3.681,16.158-2.466,23.271,3.2a158.675,158.675,0,0,0,17.564,16.241c6.9,5.472,18.54,14.818,33,20.059,20.876,7.565,40.97,4.794,54.024,1.349,12.986-11.091,16.9-13.067,17.736-12.347.731.63-.753,3.543-2.607,7.21-.525,1.04-.984,1.881-1.293,2.434a25.922,25.922,0,0,1,5.972-.995c2.944-.142,4.751-.229,5.972.995,1.544,1.547,1.145,4.181.995,4.977a5.253,5.253,0,0,1,1.99,1.99c1.1,2.011.688,4.73-.995,6.967.419.591,1.52,2.3.995,3.982C3465.51,2998.7,3463.893,2999.489,3462.01,3000.136Z" transform="translate(-3234.62 -2848.575)" fill="#ddd8f9"/>
      <g id="Group_35763" data-name="Group 35763" transform="translate(1.074 96.17)">
        <g id="Group_35762" data-name="Group 35762" transform="translate(0 1.295)">
          <rect id="Rectangle_266" data-name="Rectangle 266" width="36.925" height="99.697" rx="18.462" transform="matrix(-0.995, 0.095, -0.095, -0.995, 46.25, 99.244)" fill="#bdb4f5"/>
          <ellipse id="Ellipse_185" data-name="Ellipse 185" cx="10.154" cy="5.539" rx="10.154" ry="5.539" transform="translate(9.127 7.819) rotate(-5.464)" fill="#9c8ff1"/>
        </g>
        <rect id="Rectangle_267" data-name="Rectangle 267" width="36.925" height="99.697" rx="18.462" transform="translate(80.874 99.244) rotate(174.536)" fill="#bdb4f5"/>
        <ellipse id="Ellipse_186" data-name="Ellipse 186" cx="11.077" cy="5.539" rx="11.077" ry="5.539" transform="matrix(1, -0.031, 0.031, 1, 43.211, 7.798)" fill="#9c8ff1"/>
      </g>
      <g id="Group_35765" data-name="Group 35765" transform="translate(24.222 0)">
        <g id="Group_35764" data-name="Group 35764" transform="translate(0)" clip-path="url(#clip-path-2)">
          <circle id="Ellipse_187" data-name="Ellipse 187" cx="39.662" cy="39.662" r="39.662" transform="translate(0 77.661) rotate(-78.251)" fill="#ddd8f9"/>
          <circle id="Ellipse_188" data-name="Ellipse 188" cx="33.57" cy="33.57" r="33.57" transform="translate(31.11 13.11) rotate(-24.033)" fill="#5e48e9"/>
        </g>
      </g>
      <path id="Path_39538" data-name="Path 39538" d="M3340.134,2892.648c-1.231.4-2.74-9.578-12.318-19.193-9.14-9.175-18.623-10.99-18.12-12.577.539-1.7,12.243-2.142,20.643,4.412C3341.839,2874.26,3341.74,2892.125,3340.134,2892.648Z" transform="translate(-3235.5 -2841.59)" fill="#f9f9f9"/>
    </g>
    <circle id="Ellipse_190" data-name="Ellipse 190" cx="40.376" cy="40.376" r="40.376" transform="translate(3179.477 2758.216)" fill="#fd59a8"/>
    <path id="Path_39539" data-name="Path 39539" d="M3249.843,2819.02V2819a28.479,28.479,0,0,0-7.615-19.387,29.016,29.016,0,0,0-42.527,0,28.478,28.478,0,0,0-7.616,19.4v.007a28.434,28.434,0,0,0,7.919,19.721c.268.281.544.55.821.818l.012.015c.006.007.015.012.022.019a29.011,29.011,0,0,0,40.212,0c.007-.006.015-.011.022-.018l.012-.015c.276-.268.552-.537.82-.817A28.433,28.433,0,0,0,3249.843,2819.02Zm-10.828,15.078a28.711,28.711,0,0,0-5.838-3.615,38.213,38.213,0,0,0,1.67-8.841h9.578A23.15,23.15,0,0,1,3239.015,2834.1Zm-18.051-37.407a32.779,32.779,0,0,1,5.326,7.774,23.867,23.867,0,0,1-10.652,0A32.771,32.771,0,0,1,3220.964,2796.69Zm-10.318,6.027a23.441,23.441,0,0,1-3.906-2.38,23.783,23.783,0,0,1,7.537-3.765A38.046,38.046,0,0,0,3210.646,2802.718Zm17-6.145a23.778,23.778,0,0,1,7.537,3.765,23.451,23.451,0,0,1-3.906,2.38A38.046,38.046,0,0,0,3227.651,2796.573Zm-6.687,13.757a29.192,29.192,0,0,0,7.278-.922,32.907,32.907,0,0,1,1.329,6.97h-17.214a32.937,32.937,0,0,1,1.329-6.97A29.192,29.192,0,0,0,3220.964,2810.33Zm8.607,11.313a32.923,32.923,0,0,1-1.361,7.074,29.162,29.162,0,0,0-14.492,0,32.924,32.924,0,0,1-1.361-7.074Zm-8.607,11.423a23.955,23.955,0,0,1,5.278.592,32.733,32.733,0,0,1-5.278,7.673,32.733,32.733,0,0,1-5.278-7.673A23.959,23.959,0,0,1,3220.964,2833.066Zm-6.666,8.41a23.313,23.313,0,0,1-7.492-3.729,23.459,23.459,0,0,1,3.883-2.352A38.065,38.065,0,0,0,3214.3,2841.476Zm16.941-6.081a23.477,23.477,0,0,1,3.883,2.352,23.312,23.312,0,0,1-7.492,3.729A38.174,38.174,0,0,0,3231.239,2835.4Zm13.185-19.017h-9.578a38.22,38.22,0,0,0-1.641-8.74,28.767,28.767,0,0,0,5.868-3.648A23.208,23.208,0,0,1,3244.425,2816.378Zm-41.57-12.388a28.754,28.754,0,0,0,5.868,3.648,38.234,38.234,0,0,0-1.642,8.74H3197.5A23.213,23.213,0,0,1,3202.854,2803.99Zm-5.351,17.653h9.578a38.2,38.2,0,0,0,1.671,8.841,28.753,28.753,0,0,0-5.839,3.615A23.157,23.157,0,0,1,3197.5,2821.643Z" transform="translate(-1.112 -20.419)" fill="#fff" stroke="#fd59a8" stroke-miterlimit="10" stroke-width="1"/>
  </g>
</svg>
